<?xml version="1.0" encoding="UTF-8" standalone="no"?>
<svg
   xmlns:dc="http://purl.org/dc/elements/1.1/"
   xmlns:cc="http://creativecommons.org/ns#"
   xmlns:rdf="http://www.w3.org/1999/02/22-rdf-syntax-ns#"
   xmlns:svg="http://www.w3.org/2000/svg"
   xmlns="http://www.w3.org/2000/svg"
   xmlns:sodipodi="http://sodipodi.sourceforge.net/DTD/sodipodi-0.dtd"
   xmlns:inkscape="http://www.inkscape.org/namespaces/inkscape"
   inkscape:version="1.0 (4035a4fb49, 2020-05-01)"
   sodipodi:docname="logo.svg"
   viewBox="0 0 950 280"
   height="280"
   width="950"
   id="svg2"
   version="1.1">
  <metadata
     id="metadata8">
    <rdf:RDF>
      <cc:Work
         rdf:about="">
        <dc:format>image/svg+xml</dc:format>
        <dc:type
           rdf:resource="http://purl.org/dc/dcmitype/StillImage" />
        <dc:title></dc:title>
      </cc:Work>
    </rdf:RDF>
  </metadata>
  <defs
     id="defs6" />
  <sodipodi:namedview
     inkscape:current-layer="g10"
     inkscape:window-maximized="1"
     inkscape:window-y="0"
     inkscape:window-x="0"
     inkscape:cy="-7.7513586"
     inkscape:cx="498.05972"
     inkscape:zoom="0.38956346"
     showgrid="false"
     id="namedview4"
     inkscape:window-height="743"
     inkscape:window-width="1366"
     inkscape:pageshadow="2"
     inkscape:pageopacity="0"
     guidetolerance="10"
     gridtolerance="10"
     objecttolerance="10"
     borderopacity="1"
     bordercolor="#666666"
     pagecolor="#ffffff" />
  <g
     id="g10"
     inkscape:label="Image"
     inkscape:groupmode="layer">
    <path
       style="fill:#ef9651;stroke-width:1;stroke:#f17a20;stroke-opacity:1;stroke-miterlimit:4;stroke-dasharray:none;stroke-linejoin:bevel"
       d="m 47.412401,277.40194 c 0.946507,-0.14339 2.495334,-0.14339 3.441836,0 0.946507,0.14338 0.172093,0.2607 -1.720916,0.2607 -1.893014,0 -2.667427,-0.11732 -1.72092,-0.2607 z m 117.648269,0 c 0.9465,-0.14339 2.49533,-0.14339 3.44184,0 0.9465,0.14338 0.17209,0.2607 -1.72093,0.2607 -1.893,0 -2.66742,-0.11732 -1.72091,-0.2607 z m 638.30444,0 c 0.94647,-0.14339 2.4953,-0.14339 3.44182,0 0.94652,0.14338 0.17211,0.2607 -1.72093,0.2607 -1.893,0 -2.66741,-0.11732 -1.72089,-0.2607 z M 42.132309,276.79689 c 0.451737,-0.18077 0.991479,-0.15854 1.19943,0.0494 0.207942,0.20794 -0.161664,0.35585 -0.821347,0.32867 -0.729014,-0.03 -0.877293,-0.17831 -0.378083,-0.37807 z m 12.515775,0 c 0.451736,-0.18077 0.991479,-0.15854 1.19943,0.0494 0.207942,0.20794 -0.161669,0.35585 -0.821348,0.32867 -0.729014,-0.03 -0.877293,-0.17831 -0.378082,-0.37807 z m 743.436936,0 c 0.45174,-0.18077 0.99148,-0.15854 1.19945,0.0494 0.20792,0.20794 -0.16174,0.35585 -0.82135,0.32867 -0.72908,-0.03 -0.87729,-0.17831 -0.3781,-0.37807 z m 12.51574,0 c 0.45179,-0.18077 0.99153,-0.15854 1.19945,0.0494 0.20796,0.20794 -0.16169,0.35585 -0.82135,0.32867 -0.72903,-0.03 -0.87729,-0.17831 -0.3781,-0.37807 z M 273.02272,250.59747 c 0.0935,-14.26664 0.37508,-25.93944 0.62579,-25.93956 0.59359,-2.7e-4 0.25711,50.82512 -0.34044,51.4232 -0.25042,0.25065 -0.37883,-11.217 -0.28535,-25.48364 z m 54.88418,25.21888 c -0.48922,-1.32476 -0.63991,-51.15868 -0.15469,-51.15844 0.25071,1.2e-4 0.53231,11.68691 0.62579,25.97065 0.0935,14.28374 0.0907,25.97034 -0.006,25.97023 -0.0969,-1.1e-4 -0.30608,-0.35221 -0.46496,-0.78244 z m 138.94036,-28.94272 c 0,-16.283 0.21121,-29.47492 0.46934,-29.31538 0.61353,0.37919 0.61353,58.25156 0,58.63075 -0.25813,0.15954 -0.46934,-13.03238 -0.46934,-29.31537 z m 73.94733,29.30776 c -0.57898,-0.57897 -0.52763,-58.2648 0.0521,-58.62314 0.25814,-0.15954 0.46934,13.05927 0.46934,29.37513 0,16.31586 -0.0235,29.66521 -0.0521,29.66521 -0.0286,0 -0.23988,-0.18774 -0.46935,-0.4172 z m 45.15558,-1.25627 c 0.26701,-1.30976 0.42438,-1.46712 0.60677,-0.60677 0.1354,0.63888 -0.0268,1.43465 -0.36055,1.76837 -0.39185,0.39183 -0.47906,-0.0197 -0.24622,-1.1616 z m 310.91818,1.25627 c -0.57898,-0.57897 -0.52763,-58.2648 0.052,-58.62314 0.25814,-0.15954 0.46934,13.05927 0.46934,29.37513 0,16.31586 -0.023,29.66521 -0.0519,29.66521 -0.0286,0 -0.23993,-0.18774 -0.46935,-0.4172 z m 45.15554,-1.25627 c 0.26705,-1.30976 0.42442,-1.46712 0.60676,-0.60677 0.13545,0.63888 -0.0267,1.43465 -0.3605,1.76837 -0.39185,0.39183 -0.4791,-0.0197 -0.24626,-1.1616 z M 404.86971,246.87363 c 1.3e-4,-15.83246 0.0813,-22.21966 0.18044,-14.19378 0.0991,8.02587 0.099,20.97969 -2.4e-4,28.78628 -0.0992,7.80657 -0.18033,1.23995 -0.1802,-14.5925 z m 4.37787,3.12894 c -1.7e-4,-14.11154 0.082,-19.97369 0.18267,-13.02703 0.10064,6.94668 0.10078,18.49248 3e-4,25.65734 -0.10047,7.16487 -0.18281,1.48122 -0.18297,-12.63031 z m 247.18914,-3.12894 c 1.4e-4,-15.83246 0.0814,-22.21966 0.18042,-14.19378 0.0991,8.02587 0.099,20.97969 -1.9e-4,28.78628 -0.0992,7.80657 -0.18032,1.23995 -0.18023,-14.5925 z m 4.23393,16.73984 -0.14183,-12.04643 12.35936,0.14212 12.35931,0.1421 -12.03265,0.18425 -12.0327,0.18424 -0.18492,11.72008 -0.18483,11.72007 z m -607.274145,9.42869 c 0.451736,-0.18077 0.991479,-0.15854 1.19943,0.0494 0.207942,0.20795 -0.161665,0.35585 -0.821347,0.32868 -0.729015,-0.03 -0.877294,-0.17831 -0.378083,-0.37807 z m 108.261435,0 c 0.45174,-0.18077 0.99149,-0.15854 1.19943,0.0494 0.20795,0.20795 -0.16167,0.35585 -0.82134,0.32868 -0.72902,-0.03 -0.8773,-0.17831 -0.37809,-0.37807 z m 9.38683,0 c 0.45174,-0.18077 0.99149,-0.15854 1.19943,0.0494 0.20795,0.20795 -0.16167,0.35585 -0.82134,0.32868 -0.72902,-0.03 -0.8773,-0.17831 -0.37809,-0.37807 z m 628.91761,0 c 0.45175,-0.18077 0.99149,-0.15854 1.19945,0.0494 0.20792,0.20795 -0.16173,0.35585 -0.82134,0.32868 -0.72908,-0.03 -0.8773,-0.17831 -0.37811,-0.37807 z m 9.38683,0 c 0.45174,-0.18077 0.99149,-0.15854 1.19945,0.0494 0.20792,0.20795 -0.16173,0.35585 -0.82134,0.32868 -0.72908,-0.03 -0.8773,-0.17831 -0.37811,-0.37807 z m -254.38247,-0.66677 c 5.78693,-0.10337 15.07989,-0.10318 20.65102,4.4e-4 5.57113,0.10361 0.83637,0.18818 -10.5217,0.18794 -11.35806,-2.3e-4 -15.91626,-0.085 -10.12932,-0.18838 z m 356.07376,0 c 5.78688,-0.10337 15.07984,-0.10318 20.65102,4.4e-4 5.57113,0.10361 0.83637,0.18818 -10.5217,0.18794 -11.35806,-2.3e-4 -15.91626,-0.085 -10.12932,-0.18838 z m -722.38246,-4.06851 c 2.59324,-2.76297 3.15509,-3.25978 3.15509,-2.78989 0,0.10043 -1.33762,1.43805 -2.9725,2.9725 l -2.97249,2.78989 z m -162.712587,-0.31289 -2.156572,-2.3467 2.346707,2.15657 c 2.184264,2.00728 2.634437,2.53684 2.156573,2.53684 -0.104574,0 -1.160593,-1.05602 -2.346708,-2.34671 z m 43.525998,0.46934 c 0,-0.96682 0.211203,-1.62732 0.469341,-1.46778 0.258138,0.15954 0.469342,0.82004 0.469342,1.46778 0,0.64774 -0.211204,1.30825 -0.469342,1.46779 -0.258138,0.15953 -0.469341,-0.50097 -0.469341,-1.46779 z m 712.426729,-0.46934 -2.15662,-2.3467 2.3467,2.15657 c 2.18427,2.00728 2.63446,2.53684 2.15663,2.53684 -0.10457,0 -1.16059,-1.05602 -2.34671,-2.34671 z m -600.09767,0.85886 c 0,-0.12995 0.49281,-0.62276 1.09514,-1.09513 0.99253,-0.7784 1.01467,-0.75627 0.23627,0.23627 -0.81752,1.04241 -1.33141,1.37391 -1.33141,0.85886 z M 66.029615,266.89886 c 0.808361,-0.86046 1.610545,-1.56447 1.782639,-1.56447 0.172093,0 -0.348491,0.70401 -1.156852,1.56447 -0.808361,0.86046 -1.61055,1.56447 -1.782639,1.56447 -0.172093,0 0.348486,-0.70401 1.156852,-1.56447 z m 754.701125,1.3282 c 0,-0.12994 0.49281,-0.62275 1.09512,-1.09513 0.99256,-0.7784 1.01467,-0.75626 0.23631,0.23627 -0.81754,1.04241 -1.33143,1.37391 -1.33143,0.85886 z m -673.38229,-2.73623 -2.15657,-2.3467 2.3467,2.15657 c 2.18427,2.00729 2.63445,2.53684 2.15658,2.53684 -0.10458,0 -1.1606,-1.05602 -2.34671,-2.34671 z m 677.68296,1.25158 c -0.77835,-0.99254 -0.75629,-1.01467 0.23627,-0.23627 1.04241,0.81751 1.37395,1.3314 0.85885,1.3314 -0.12991,0 -0.62272,-0.49281 -1.09512,-1.09513 z m -41.92787,-3.75473 c -0.77835,-0.99254 -0.75625,-1.01467 0.23632,-0.23627 0.6023,0.47237 1.09511,0.96518 1.09511,1.09513 0,0.51505 -0.51388,0.18355 -1.33143,-0.85886 z m -345.35545,-5.39903 c 0,-0.12994 0.49281,-0.62275 1.09511,-1.09513 0.99252,-0.7784 1.01467,-0.75626 0.23627,0.23628 -0.8175,1.0424 -1.33138,1.3739 -1.33138,0.85885 z m 1.87736,-2.50315 c 0,-0.12995 0.49281,-0.62275 1.09512,-1.09513 0.99252,-0.7784 1.01467,-0.75627 0.23627,0.23627 -0.8175,1.04241 -1.33139,1.37391 -1.33139,0.85886 z m -242.7566,-1.38035 c 0.03,-0.72901 0.17831,-0.87729 0.37808,-0.37808 0.18077,0.45174 0.15854,0.99149 -0.0494,1.19943 -0.20795,0.20794 -0.35585,-0.16167 -0.32868,-0.82135 z m 233.28994,-1.35588 c -0.77841,-0.99253 -0.75627,-1.01467 0.23627,-0.23627 0.60232,0.47238 1.09513,0.96519 1.09513,1.09513 0,0.51505 -0.5139,0.18355 -1.3314,-0.85886 z m 5.0063,0 c -0.7784,-0.99253 -0.75626,-1.01467 0.23628,-0.23627 1.0424,0.81752 1.37391,1.33141 0.85885,1.33141 -0.12994,0 -0.62275,-0.49281 -1.09513,-1.09514 z m -299.62353,-0.52148 c 0.03,-0.72902 0.17831,-0.8773 0.37808,-0.37808 0.18077,0.45173 0.15854,0.99148 -0.0494,1.19943 -0.20794,0.20794 -0.35585,-0.16167 -0.32867,-0.82135 z M 17.340096,250.00257 c 0.01277,-1.03256 0.153005,-1.3792 0.311666,-0.77033 0.158666,0.60887 0.148232,1.45369 -0.02319,1.87737 -0.171418,0.42368 -0.301233,-0.0745 -0.288481,-1.10704 z m 4.357333,0.31289 c 0,-0.86046 0.142037,-1.21246 0.315637,-0.78224 0.1736,0.43024 0.1736,1.13425 0,1.56448 -0.1736,0.43023 -0.315637,0.0782 -0.315637,-0.78224 z m 175.892981,-0.62579 c 0,-1.20464 0.12879,-1.69745 0.28619,-1.09513 0.1574,0.60233 0.1574,1.58794 0,2.19026 -0.1574,0.60232 -0.28619,0.10951 -0.28619,-1.09513 z m -4.4037,-0.31289 c 0.0128,-1.03255 0.153,-1.3792 0.31167,-0.77033 0.15866,0.60888 0.14823,1.45369 -0.0232,1.87737 -0.17141,0.42367 -0.30122,-0.0745 -0.28846,-1.10704 z m 235.09471,0.46934 c -0.7784,-0.99254 -0.75627,-1.01467 0.23627,-0.23627 1.04241,0.81751 1.37391,1.3314 0.85886,1.3314 -0.12995,0 -0.62276,-0.49281 -1.09513,-1.09513 z m 345.03457,-0.78224 c 0,-1.20464 0.12879,-1.69745 0.28616,-1.09513 0.15746,0.60232 0.15746,1.58794 0,2.19027 -0.15737,0.60232 -0.28616,0.10951 -0.28616,-1.09514 z m 4.35727,0.3129 c 0.0127,-1.03255 0.15301,-1.3792 0.31174,-0.77033 0.15864,0.60888 0.14822,1.45369 -0.023,1.87737 -0.1714,0.42367 -0.30117,-0.0745 -0.28846,-1.10704 z m -481.43325,-1.40803 c -0.7784,-0.99254 -0.75626,-1.01467 0.23628,-0.23627 0.60232,0.47238 1.09512,0.96519 1.09512,1.09513 0,0.51505 -0.51389,0.18355 -1.3314,-0.85886 z m 7.58929,0.85886 c 0,-0.12994 0.49281,-0.62275 1.09513,-1.09513 0.99254,-0.7784 1.01467,-0.75627 0.23627,0.23627 -0.81751,1.04241 -1.3314,1.37391 -1.3314,0.85886 z m 5.00631,0 c 0,-0.12994 0.49281,-0.62275 1.09513,-1.09513 0.99254,-0.7784 1.01467,-0.75627 0.23628,0.23627 -0.81752,1.04241 -1.33141,1.37391 -1.33141,0.85886 z m 272.53097,-2.26688 c 0,-0.96682 0.21121,-1.62732 0.46935,-1.46778 0.25813,0.15954 0.46934,0.82004 0.46934,1.46778 0,0.64774 -0.21121,1.30824 -0.46934,1.46778 -0.25814,0.15954 -0.46935,-0.50096 -0.46935,-1.46778 z m 356.07372,0 c 0,-0.96682 0.2112,-1.62732 0.46934,-1.46778 0.25814,0.15954 0.46934,0.82004 0.46934,1.46778 0,0.64774 -0.2112,1.30824 -0.46934,1.46778 -0.25814,0.15954 -0.46934,-0.50096 -0.46934,-1.46778 z m -276.76814,-12.04643 -0.14334,-13.61091 13.92381,0.14359 13.92381,0.14359 -13.59851,0.18148 -13.59846,0.18147 -0.18197,13.28584 -0.18205,13.28584 z m 27.27404,12.87052 c 0.45174,-0.18077 0.99148,-0.15854 1.19945,0.0494 0.20796,0.20794 -0.16169,0.35585 -0.82135,0.32868 -0.72903,-0.03 -0.87729,-0.17831 -0.3781,-0.37808 z M 289.35634,245.4656 c -0.7784,-0.99254 -0.75627,-1.01467 0.23627,-0.23627 0.60232,0.47237 1.09513,0.96518 1.09513,1.09513 0,0.51504 -0.51389,0.18355 -1.3314,-0.85886 z m 5.0063,0 c -0.77839,-0.99254 -0.75626,-1.01467 0.23628,-0.23627 0.60232,0.47237 1.09513,0.96518 1.09513,1.09513 0,0.51504 -0.51389,0.18355 -1.33141,-0.85886 z m 11.34403,0.85886 c 0,-0.12995 0.4928,-0.62276 1.09513,-1.09513 0.99253,-0.7784 1.01467,-0.75627 0.23627,0.23627 -0.81751,1.04241 -1.3314,1.3739 -1.3314,0.85886 z m 5.00631,0 c 0,-0.12995 0.49281,-0.62276 1.09513,-1.09513 0.99254,-0.7784 1.01467,-0.75627 0.23627,0.23627 -0.81751,1.04241 -1.3314,1.3739 -1.3314,0.85886 z m -113.12257,-2.26688 c 0,-1.20465 0.12879,-1.69746 0.28619,-1.09514 0.1574,0.60233 0.1574,1.58795 0,2.19027 -0.1574,0.60232 -0.28619,0.10951 -0.28619,-1.09513 z m 575.72558,0 c 0,-1.20465 0.12879,-1.69746 0.28616,-1.09514 0.15746,0.60233 0.15746,1.58795 0,2.19027 -0.15737,0.60232 -0.28616,0.10951 -0.28616,-1.09513 z m 4.35727,0.31289 c 0.0127,-1.03255 0.15301,-1.3792 0.31174,-0.77033 0.15864,0.60887 0.14822,1.45369 -0.023,1.87737 -0.1714,0.42368 -0.30117,-0.0745 -0.28846,-1.10704 z m -584.50975,-0.31289 c 0,-0.86047 0.14205,-1.21247 0.31565,-0.78224 0.1736,0.43023 0.1736,1.13424 0,1.56447 -0.1736,0.43023 -0.31565,0.0782 -0.31565,-0.78223 z m -175.846604,-0.6258 c 0,-0.86045 0.142036,-1.21246 0.315641,-0.78223 0.1736,0.43023 0.1736,1.13424 0,1.56447 -0.173605,0.43023 -0.315641,0.0782 -0.315641,-0.78224 z m 4.380523,0 c 0,-0.86045 0.142037,-1.21246 0.315637,-0.78223 0.1736,0.43023 0.1736,1.13424 0,1.56447 -0.1736,0.43023 -0.315637,0.0782 -0.315637,-0.78224 z m 426.063261,1.01531 c 0,-0.12994 0.49281,-0.62275 1.09512,-1.09513 0.99256,-0.7784 1.01467,-0.75626 0.23626,0.23628 -0.8175,1.0424 -1.33138,1.3739 -1.33138,0.85885 z m 248.12522,-1.01531 c 0.62296,-0.68836 1.27346,-1.25157 1.44557,-1.25157 0.17206,0 -0.19684,0.56321 -0.8198,1.25157 -0.62296,0.68837 -1.27346,1.25158 -1.44557,1.25158 -0.17211,0 0.19679,-0.56321 0.8198,-1.25158 z m -408.40694,-0.46934 c -0.7784,-0.99253 -0.75627,-1.01467 0.23627,-0.23627 0.60232,0.47238 1.09513,0.96519 1.09513,1.09513 0,0.51505 -0.51389,0.18355 -1.3314,-0.85886 z m -151.93741,-1.14727 c 0.03,-0.72901 0.17831,-0.8773 0.37808,-0.37809 0.18077,0.45174 0.15854,0.99149 -0.0494,1.19943 -0.20794,0.20795 -0.35585,-0.16166 -0.32867,-0.82134 z m 4.38052,0 c 0.03,-0.72901 0.17831,-0.8773 0.37808,-0.37809 0.18077,0.45174 0.15854,0.99149 -0.0494,1.19943 -0.20794,0.20795 -0.35584,-0.16166 -0.32867,-0.82134 z m 304.70965,0.12876 c 0,-0.12994 0.49281,-0.62275 1.09516,-1.09512 0.99252,-0.7784 1.01467,-0.75627 0.23627,0.23627 -0.8175,1.0424 -1.33143,1.37391 -1.33143,0.85885 z m 5.00633,0 c 0,-0.12994 0.49281,-0.62275 1.09511,-1.09512 0.99257,-0.7784 1.01467,-0.75627 0.23627,0.23627 -0.8175,1.0424 -1.33138,1.37391 -1.33138,0.85885 z m 324.20791,-2.00613 c 0.03,-0.72901 0.17835,-0.87729 0.3781,-0.37808 0.18079,0.45174 0.15855,0.99149 -0.0495,1.19943 -0.20791,0.20794 -0.35585,-0.16167 -0.32872,-0.82135 z m -348.6935,-0.73009 c -0.77839,-0.99253 -0.75626,-1.01467 0.23628,-0.23627 1.0424,0.81751 1.3739,1.3314 0.85885,1.3314 -0.12994,0 -0.62275,-0.4928 -1.09513,-1.09513 z m 21.35663,0.23307 c 0,-0.12994 0.49281,-0.62275 1.09516,-1.09513 0.99252,-0.7784 1.01467,-0.75627 0.23627,0.23627 -0.8175,1.04241 -1.33143,1.37391 -1.33143,0.85886 z m -28.2403,-2.73622 c -0.7784,-0.99254 -0.75627,-1.01468 0.23627,-0.23627 1.04241,0.81751 1.37391,1.3314 0.85886,1.3314 -0.12995,0 -0.62275,-0.49281 -1.09513,-1.09513 z m 5.00631,0 c -0.7784,-0.99254 -0.75627,-1.01468 0.23627,-0.23627 1.04241,0.81751 1.37391,1.3314 0.85886,1.3314 -0.12994,0 -0.62275,-0.49281 -1.09513,-1.09513 z m -137.04772,-1.87737 c -0.77839,-0.99254 -0.75626,-1.01467 0.23627,-0.23627 1.04241,0.81751 1.37391,1.3314 0.85886,1.3314 -0.12994,0 -0.62275,-0.49281 -1.09513,-1.09513 z m 32.62084,0.85886 c 0,-0.12995 0.49281,-0.62276 1.09513,-1.09513 0.99254,-0.7784 1.01467,-0.75627 0.23627,0.23627 -0.81751,1.04241 -1.3314,1.37391 -1.3314,0.85886 z m 97.5432,-1.48464 c -0.7784,-0.99254 -0.75626,-1.01468 0.23628,-0.23628 1.04241,0.81751 1.3739,1.3314 0.85886,1.3314 -0.12995,0 -0.62276,-0.4928 -1.09514,-1.09512 z m -132.0414,-1.87737 c -0.7784,-0.99254 -0.75627,-1.01467 0.23627,-0.23628 1.04241,0.81752 1.37391,1.33141 0.85886,1.33141 -0.12995,0 -0.62275,-0.49281 -1.09513,-1.09513 z m 31.36926,0.85886 c 0,-0.12995 0.49281,-0.62276 1.09513,-1.09514 0.99254,-0.77839 1.01467,-0.75626 0.23627,0.23628 -0.81751,1.04241 -1.3314,1.3739 -1.3314,0.85886 z m 142.054,-1.87737 c 0,-0.12995 0.49281,-0.62275 1.09517,-1.09513 0.99251,-0.7784 1.01467,-0.75627 0.23626,0.23627 -0.8175,1.04241 -1.33143,1.37391 -1.33143,0.85886 z m -180.30694,-1.48465 c -0.7784,-0.99253 -0.75626,-1.01467 0.23628,-0.23627 1.0424,0.81751 1.3739,1.3314 0.85885,1.3314 -0.12994,0 -0.62275,-0.4928 -1.09513,-1.09513 z m 40.1303,0.85886 c 0,-0.12994 0.49281,-0.62275 1.09513,-1.09513 0.99254,-0.7784 1.01468,-0.75626 0.23627,0.23627 -0.81751,1.04241 -1.3314,1.37391 -1.3314,0.85886 z m -170.21451,-2.57977 c 1.16758,-1.20465 2.26368,-2.19027 2.43577,-2.19027 0.1721,0 -0.6424,0.98562 -1.80998,2.19027 -1.16759,1.20464 -2.26369,2.19025 -2.43578,2.19025 -0.17209,0 0.6424,-0.98561 1.80999,-2.19025 z m -6.88368,1.32819 c 0,-0.12994 0.49281,-0.62275 1.09513,-1.09513 0.99254,-0.7784 1.01467,-0.75626 0.23628,0.23628 -0.81752,1.0424 -1.33141,1.3739 -1.33141,0.85885 z m 314.14592,-0.62579 c 0,-0.12994 0.49281,-0.62275 1.09512,-1.09513 0.99251,-0.77839 1.01467,-0.75626 0.23626,0.23628 -0.8175,1.0424 -1.33138,1.3739 -1.33138,0.85885 z M 25.952986,225.75326 c 2.593248,-2.76298 3.155097,-3.25979 3.155097,-2.7899 0,0.10043 -1.337624,1.43805 -2.972495,2.9725 l -2.972499,2.78989 z m 164.236214,1.25157 -1.19211,-1.40802 1.40802,1.19212 c 1.32319,1.1203 1.69291,1.62393 1.19212,1.62393 -0.11875,0 -0.75236,-0.63361 -1.40803,-1.40803 z m 85.39978,0.3129 c -0.77839,-0.99254 -0.75626,-1.01468 0.23628,-0.23627 1.04241,0.81751 1.3739,1.3314 0.85886,1.3314 -0.12995,0 -0.62276,-0.49281 -1.09514,-1.09513 z m 549.20936,-0.15645 c 0.623,-0.68837 1.27351,-1.25158 1.44557,-1.25158 0.17211,0 -0.19679,0.56321 -0.81975,1.25158 -0.623,0.68837 -1.27351,1.25158 -1.44557,1.25158 -0.17211,0 0.19679,-0.56321 0.81975,-1.25158 z M 69.075965,227.00817 c 0.470857,-0.60049 0.708316,-1.6569 0.527704,-2.34757 -0.180617,-0.69068 -0.07305,-1.09796 0.239036,-0.90508 0.940579,0.5813 0.639468,2.57023 -0.5277,3.48559 -0.991808,0.77782 -1.014359,0.75584 -0.23904,-0.23294 z m 713.168775,-1.72425 c 1.34429,-1.37674 2.58504,-2.50316 2.75715,-2.50316 0.17211,0 -0.78704,1.12642 -2.13137,2.50316 -1.34434,1.37673 -2.58509,2.50315 -2.75715,2.50315 -0.17211,0 0.78704,-1.12642 2.13137,-2.50315 z m -716.920743,0.78223 c -0.778398,-0.99254 -0.756264,-1.01467 0.236276,-0.23627 1.042408,0.81751 1.373904,1.3314 0.858858,1.3314 -0.129947,0 -0.622755,-0.49281 -1.095134,-1.09513 z m 349.815863,0 c -0.77841,-0.99254 -0.75627,-1.01467 0.23627,-0.23627 1.04241,0.81751 1.37391,1.3314 0.85886,1.3314 -0.12995,0 -0.62276,-0.49281 -1.09513,-1.09513 z m 406.13682,0 c -0.77835,-0.99254 -0.75629,-1.01467 0.23627,-0.23627 1.04241,0.81751 1.37395,1.3314 0.85885,1.3314 -0.12992,0 -0.62272,-0.49281 -1.09512,-1.09513 z m -364.75493,0.23307 c 0,-0.12995 0.49281,-0.62276 1.09511,-1.09513 0.99252,-0.7784 1.01467,-0.75627 0.23627,0.23627 -0.8175,1.04241 -1.33138,1.37391 -1.33138,0.85886 z M 186.727,223.563 c -0.7784,-0.99254 -0.75627,-1.01468 0.23627,-0.23627 1.04241,0.8175 1.37391,1.3314 0.85886,1.3314 -0.12995,0 -0.62275,-0.49281 -1.09513,-1.09513 z m 226.53549,0 c -0.7784,-0.99254 -0.75627,-1.01468 0.23627,-0.23627 0.60232,0.47237 1.09513,0.96518 1.09513,1.09512 0,0.51505 -0.51389,0.18355 -1.3314,-0.85885 z m 286.01788,-0.62579 -1.5171,-1.72092 1.72089,1.5171 c 0.94652,0.83442 1.72094,1.60883 1.72094,1.72092 0,0.4908 -0.50675,0.0914 -1.92473,-1.5171 z m -552.52402,0.23307 c 0,-0.12995 0.49281,-0.62276 1.09513,-1.09513 0.99254,-0.7784 1.01467,-0.75627 0.23627,0.23627 -0.81751,1.04241 -1.3314,1.37391 -1.3314,0.85886 z m 675.77188,-1.48465 c -0.77836,-0.99254 -0.75625,-1.01467 0.23631,-0.23627 1.04236,0.81751 1.37391,1.3314 0.85885,1.3314 -0.12991,0 -0.62272,-0.49281 -1.09516,-1.09513 z m -267.56149,-0.6249 c 5.78693,-0.10338 15.07989,-0.10318 20.65102,4.3e-4 5.57113,0.10361 0.83637,0.18819 -10.5217,0.18795 -11.35806,-2.4e-4 -15.91626,-0.085 -10.12932,-0.18838 z m 356.07376,0 c 5.78688,-0.10338 15.07984,-0.10318 20.65102,4.3e-4 5.57113,0.10361 0.83637,0.18819 -10.5217,0.18795 -11.35806,-2.4e-4 -15.91626,-0.085 -10.12932,-0.18838 z M 43.383888,220.47591 c 0.451736,-0.18077 0.991479,-0.15854 1.19943,0.0494 0.207942,0.20794 -0.161669,0.35585 -0.821347,0.32867 -0.729014,-0.03 -0.877293,-0.17831 -0.378083,-0.37807 z m 10.012617,0 c 0.451736,-0.18077 0.991479,-0.15854 1.19943,0.0494 0.207942,0.20794 -0.161665,0.35585 -0.821347,0.32867 -0.729015,-0.03 -0.877294,-0.17831 -0.378083,-0.37807 z m 117.648265,0 c 0.45174,-0.18077 0.99149,-0.15854 1.19943,0.0494 0.20795,0.20794 -0.16167,0.35585 -0.82134,0.32867 -0.72902,-0.03 -0.8773,-0.17831 -0.37809,-0.37807 z m 638.30444,0 c 0.45174,-0.18077 0.99149,-0.15854 1.19945,0.0494 0.20792,0.20794 -0.16173,0.35585 -0.82134,0.32867 -0.72908,-0.03 -0.8773,-0.17831 -0.37811,-0.37807 z m -535.0118,-1.29343 c -0.7784,-0.99254 -0.75627,-1.01468 0.23627,-0.23628 0.60232,0.47238 1.09513,0.96519 1.09513,1.09514 0,0.51504 -0.51389,0.18355 -1.3314,-0.85886 z m 51.39449,0.85886 c 0,-0.12995 0.49281,-0.62276 1.09513,-1.09514 0.99254,-0.7784 1.01468,-0.75626 0.23628,0.23628 -0.81751,1.04241 -1.33141,1.3739 -1.33141,0.85886 z m 260.21827,-1.2192 c -0.23284,-1.14196 -0.14563,-1.55344 0.24622,-1.16161 0.3337,0.33373 0.49595,1.12949 0.36055,1.76837 -0.18239,0.86035 -0.33976,0.70299 -0.60677,-0.60676 z m 356.07372,0 c -0.23284,-1.14196 -0.14559,-1.55344 0.24626,-1.16161 0.33365,0.33373 0.49595,1.12949 0.3605,1.76837 -0.18234,0.86035 -0.33971,0.70299 -0.60676,-0.60676 z M 687.9071,217.36001 c 0.4302,-0.1736 1.13421,-0.1736 1.56446,0 0.43024,0.1736 0.0782,0.31564 -0.78225,0.31564 -0.86045,0 -1.21245,-0.14204 -0.78221,-0.31564 z M 42.132309,216.72118 c 0.451737,-0.18077 0.991479,-0.15854 1.19943,0.0494 0.207942,0.20794 -0.161664,0.35585 -0.821347,0.32867 -0.729014,-0.03 -0.877293,-0.17831 -0.378083,-0.37807 z m 117.648271,0 c 0.45173,-0.18077 0.99148,-0.15854 1.19943,0.0494 0.20794,0.20794 -0.16167,0.35585 -0.82135,0.32867 -0.72901,-0.03 -0.87729,-0.17831 -0.37808,-0.37807 z m 638.30444,0 c 0.45174,-0.18077 0.99148,-0.15854 1.19945,0.0494 0.20792,0.20794 -0.16174,0.35585 -0.82135,0.32867 -0.72908,-0.03 -0.87729,-0.17831 -0.3781,-0.37807 z M 47.110713,216.06935 c 1.124763,-0.13928 2.814392,-0.1364 3.754732,0.006 0.940344,0.14279 0.02009,0.25674 -2.04502,0.25323 -2.065102,-0.004 -2.83447,-0.12034 -1.709712,-0.25961 z m 117.648267,0 c 1.12476,-0.13928 2.81439,-0.1364 3.75473,0.006 0.94034,0.14279 0.0201,0.25674 -2.04502,0.25323 -2.0651,-0.004 -2.83447,-0.12034 -1.70971,-0.25961 z m 638.30444,0 c 1.12477,-0.13928 2.8144,-0.1364 3.75473,0.006 0.94037,0.14279 0.0202,0.25674 -2.04502,0.25323 -2.0651,-0.004 -2.83444,-0.12034 -1.70971,-0.25961 z m 30.06573,-7.48342 c 0.45179,-0.18077 0.99153,-0.15854 1.19945,0.0494 0.20797,0.20795 -0.16169,0.35585 -0.82135,0.32868 -0.72903,-0.03 -0.87729,-0.17831 -0.3781,-0.37808 z m 16.8572,0.013 c 0.43024,-0.1736 1.13426,-0.1736 1.56445,0 0.43025,0.1736 0.0782,0.31564 -0.7822,0.31564 -0.86049,0 -1.2125,-0.14204 -0.78225,-0.31564 z M 40.88073,205.45697 c 0.451741,-0.18077 0.991484,-0.15854 1.19943,0.0494 0.207947,0.20794 -0.161664,0.35585 -0.821347,0.32867 -0.729009,-0.03 -0.877293,-0.17831 -0.378083,-0.37807 z m -3.288432,-0.76573 c -0.19288,-0.31209 0.212908,-0.42005 0.901751,-0.23991 1.46121,0.38211 1.645919,0.80733 0.350692,0.80733 -0.495963,0 -1.059562,-0.25534 -1.252443,-0.56742 z m 143.269532,-1.93573 c 0.21272,-0.34419 0.51094,-0.62579 0.66272,-0.62579 0.15178,0 0.27596,0.2816 0.27596,0.62579 0,0.34418 -0.29822,0.62579 -0.66272,0.62579 -0.3645,0 -0.48868,-0.28161 -0.27596,-0.62579 z m 47.55195,-98.24881 c 0,-52.143836 0.074,-73.475406 0.16438,-47.403487 0.0904,26.07192 0.0904,68.735057 0,94.806977 -0.0904,26.07192 -0.16438,4.74035 -0.16438,-47.40349 z m 288.48533,28.47339 c -5e-5,-36.483478 0.0753,-51.5005 0.16755,-33.371157 0.0922,18.129347 0.0922,47.979457 5e-5,66.333597 -0.0922,18.35414 -0.1676,3.52104 -0.1676,-32.96244 z m 56.31886,10.9513 c 0,-30.46026 0.0763,-42.92128 0.16962,-27.69115 0.0933,15.23013 0.0933,40.15217 0,55.3823 -0.0933,15.23013 -0.16962,2.76911 -0.16962,-27.69115 z M 96.235823,196.06397 c 0.608877,-0.15866 1.453691,-0.14823 1.877366,0.0232 0.423679,0.17142 -0.07449,0.30123 -1.107036,0.28848 -1.032551,-0.0128 -1.379202,-0.153 -0.77033,-0.31167 z m 14.107447,0.006 c 0.45174,-0.18078 0.99148,-0.15855 1.19943,0.0494 0.20795,0.20794 -0.16166,0.35585 -0.82135,0.32868 -0.72901,-0.03 -0.87729,-0.17832 -0.37808,-0.37808 z m 2.77694,-0.004 c 0.60232,-0.1574 1.58794,-0.1574 2.19026,0 0.60232,0.1574 0.10951,0.28619 -1.09513,0.28619 -1.20464,0 -1.69745,-0.12879 -1.09513,-0.28619 z M 89.977938,195.4384 c 0.608872,-0.15867 1.453687,-0.14823 1.877366,0.0232 0.423679,0.17142 -0.07449,0.30124 -1.107041,0.28849 -1.032551,-0.0128 -1.379197,-0.15301 -0.770325,-0.31168 z m 30.025952,0.002 c 0.60232,-0.15739 1.58793,-0.15739 2.19025,0 0.60233,0.15741 0.10952,0.28619 -1.09513,0.28619 -1.20464,0 -1.69745,-0.12878 -1.09512,-0.28619 z m -39.111798,-1.86043 c 0.430231,-0.1736 1.134244,-0.1736 1.564475,0 0.430227,0.1736 0.07822,0.31564 -0.782237,0.31564 -0.860458,0 -1.212464,-0.14204 -0.782238,-0.31564 z m 48.510528,-0.0192 c 0.60888,-0.15866 1.45369,-0.14823 1.87737,0.0232 0.42368,0.17143 -0.0745,0.30124 -1.10704,0.28848 -1.03255,-0.0128 -1.3792,-0.153 -0.77033,-0.31166 z M 12.211789,189.92686 c -1.520059,-1.54883 -2.6229407,-2.81605 -2.4508487,-2.81605 0.1720921,0 1.5565787,1.26722 3.0766377,2.81605 1.520059,1.54882 2.622941,2.81604 2.450848,2.81604 -0.172094,0 -1.556578,-1.26722 -3.076637,-2.81604 z m 58.824132,0.93868 c -0.564017,-0.3645 -0.6412,-0.61045 -0.193378,-0.61621 0.409913,-0.005 0.919346,0.27203 1.132061,0.61621 0.480169,0.77694 0.263535,0.77694 -0.938683,0 z m 69.295659,-0.0777 c 0.4245,-0.42768 0.92945,-0.61995 1.12212,-0.42728 0.19268,0.19268 -0.15464,0.54259 -0.7718,0.77759 -0.89187,0.3396 -0.96375,0.26773 -0.35032,-0.35031 z m 7.50947,-3.12895 c 0.4245,-0.42767 0.92944,-0.61995 1.12212,-0.42727 0.19267,0.19267 -0.15464,0.54259 -0.77181,0.77759 -0.89187,0.3396 -0.96375,0.26772 -0.35031,-0.35032 z m 55.86207,-0.78441 c 0,-0.12994 0.49281,-0.62275 1.09513,-1.09512 0.99254,-0.77841 1.01467,-0.75627 0.23627,0.23627 -0.81751,1.0424 -1.3314,1.37391 -1.3314,0.85885 z m 637.20931,-1.44667 c 0.6023,-0.1574 1.58792,-0.1574 2.19023,0 0.60235,0.1574 0.10954,0.28619 -1.09512,0.28619 -1.20466,0 -1.69746,-0.12879 -1.09511,-0.28619 z M 7.1256573,184.13831 c -0.7784005,-0.99254 -0.7562663,-1.01467 0.2362698,-0.23627 0.6023215,0.47237 1.09513,0.96518 1.09513,1.09513 0,0.51505 -0.513889,0.18355 -1.3313998,-0.85886 z m 50.4558107,0.46934 c -0.21272,-0.34418 -0.08854,-0.62578 0.275959,-0.62578 0.364495,0 0.662724,0.2816 0.662724,0.62578 0,0.34419 -0.124183,0.62579 -0.275963,0.62579 -0.151776,0 -0.450005,-0.2816 -0.66272,-0.62579 z M 5.3281137,181.47871 c -0.368403,-0.68837 -0.5290215,-1.25158 -0.3569295,-1.25158 0.1720916,0 0.6143154,0.56321 0.9827185,1.25158 0.368403,0.68837 0.5290215,1.25158 0.3569295,1.25158 -0.1720916,0 -0.6143155,-0.56321 -0.9827185,-1.25158 z M 207.14495,182.1045 c 0.21272,-0.34419 0.51095,-0.62579 0.66273,-0.62579 0.15178,0 0.27596,0.2816 0.27596,0.62579 0,0.34418 -0.29823,0.62579 -0.66272,0.62579 -0.3645,0 -0.48868,-0.28161 -0.27597,-0.62579 z m -47.87283,-0.87173 c 0,-0.13527 0.43703,-0.41365 0.97119,-0.61863 0.5569,-0.2137 0.80809,-0.10879 0.58886,0.24595 -0.36751,0.59463 -1.56005,0.87951 -1.56005,0.37268 z M 2.1991707,175.80968 c 0,-0.3645 0.2816049,-0.48868 0.6257885,-0.27596 0.3441836,0.21271 0.6257885,0.51094 0.6257885,0.66272 0,0.15178 -0.2816049,0.27596 -0.6257885,0.27596 -0.3441836,0 -0.6257885,-0.29823 -0.6257885,-0.66272 z m 42.4738013,-0.43241 c -0.778398,-0.99254 -0.756264,-1.01467 0.236276,-0.23627 1.042407,0.81751 1.373903,1.3314 0.858857,1.3314 -0.129946,0 -0.622755,-0.49281 -1.095133,-1.09513 z m 122.250158,0.10719 c 0.59413,-0.6203 1.21494,-0.99312 1.37957,-0.82848 0.16463,0.16463 -0.32147,0.67214 -1.08023,1.12781 -1.31811,0.79157 -1.33144,0.77824 -0.29934,-0.29933 z M 39.746491,171.1532 c -1.520061,-1.54883 -2.622943,-2.81605 -2.450854,-2.81605 0.172093,0 1.55658,1.26722 3.076641,2.81605 1.520061,1.54882 2.622944,2.81604 2.45085,2.81604 -0.172089,0 -1.55658,-1.26722 -3.076637,-2.81604 z m 55.237758,2.38238 c 0.608872,-0.15866 1.453686,-0.14823 1.877366,0.0232 0.423674,0.17143 -0.07449,0.30124 -1.107041,0.28849 -1.032551,-0.0128 -1.379202,-0.15301 -0.770325,-0.31167 z m 20.025231,0 c 0.60888,-0.15866 1.45369,-0.14823 1.87737,0.0232 0.42368,0.17143 -0.0745,0.30124 -1.10704,0.28849 -1.03255,-0.0128 -1.3792,-0.15301 -0.77033,-0.31167 z m 53.71716,0.27722 c 0.15196,-0.0861 2.09973,-1.84608 4.32837,-3.91118 l 4.05209,-3.75473 -3.73514,3.91118 c -2.05433,2.15114 -4.0021,3.91117 -4.32837,3.91117 -0.32628,0 -0.4689,-0.0704 -0.31695,-0.15644 z m 44.46211,-5.47565 c 0,-0.86046 0.14204,-1.21247 0.31564,-0.78224 0.1736,0.43023 0.1736,1.13424 0,1.56447 -0.1736,0.43024 -0.31564,0.0782 -0.31564,-0.78223 z M 32.157202,162.23571 c -0.778403,-0.99254 -0.756269,-1.01467 0.236271,-0.23627 0.60232,0.47237 1.095129,0.96518 1.095129,1.09512 0,0.51506 -0.513892,0.18355 -1.3314,-0.85885 z m -2.184742,-2.81605 c -0.253581,-0.43023 -0.863119,-1.48625 -1.35452,-2.34671 -0.857806,-1.50203 -0.851536,-1.51452 0.157089,-0.31289 1.271075,1.51429 2.366762,3.44184 1.956473,3.44184 -0.163885,0 -0.505453,-0.35201 -0.759042,-0.78224 z m 154.97617,-3.91118 c 0,-0.34418 0.27297,-1.04819 0.60661,-1.56447 0.33365,-0.51628 0.60663,-0.65708 0.60663,-0.3129 0,0.34419 -0.27298,1.0482 -0.60663,1.56447 -0.33364,0.51628 -0.60661,0.65708 -0.60661,0.3129 z m -31.93439,-3.05232 c 0,-0.12995 0.4928,-0.62275 1.09512,-1.09513 0.99254,-0.7784 1.01468,-0.75627 0.23628,0.23627 -0.81751,1.04241 -1.3314,1.37391 -1.3314,0.85886 z m 36.92153,-6.61047 c 0,-0.32387 0.27838,-0.76091 0.61862,-0.97119 0.35474,-0.21924 0.45964,0.032 0.24594,0.58886 -0.41602,1.08413 -0.86456,1.28248 -0.86456,0.38233 z m -169.235602,-4.8598 c -0.339606,-0.89188 -0.267722,-0.96376 0.350316,-0.35032 0.427674,0.4245 0.619949,0.92945 0.427279,1.12212 -0.192674,0.19267 -0.542591,-0.15464 -0.777595,-0.7718 z m -3.12894,-8.76105 c -0.339606,-0.89187 -0.267727,-0.96375 0.350311,-0.35031 0.427674,0.42449 0.619954,0.92944 0.42728,1.12212 -0.192674,0.19267 -0.542587,-0.15464 -0.777591,-0.77181 z m 177.370842,0.16639 c 0,-0.49596 0.25534,-1.05956 0.56743,-1.25244 0.31209,-0.19288 0.42005,0.21291 0.23991,0.90175 -0.38211,1.46121 -0.80734,1.64592 -0.80734,0.35069 z m 1.25158,-4.69341 c 0,-0.32387 0.27838,-0.76091 0.61863,-0.97119 0.35473,-0.21923 0.45964,0.032 0.24594,0.58886 -0.41602,1.08413 -0.86457,1.28248 -0.86457,0.38233 z M 14.836943,117.33537 c 0.01277,-1.03255 0.153,-1.3792 0.311666,-0.77033 0.158666,0.60888 0.148232,1.4537 -0.02319,1.87737 -0.171417,0.42368 -0.301237,-0.0745 -0.28848,-1.10704 z M 198.2162,115.14511 c 0,-1.20464 0.12879,-1.69745 0.2862,-1.09513 0.15739,0.60232 0.15739,1.58794 0,2.19026 -0.15741,0.60233 -0.2862,0.10952 -0.2862,-1.09513 z m -155.917148,0.26075 c 0.03004,-0.72901 0.178312,-0.87729 0.378073,-0.37808 0.180772,0.45173 0.158544,0.99149 -0.04937,1.19943 -0.207947,0.20794 -0.355846,-0.16167 -0.328676,-0.82135 z m 702.134838,-0.62579 c 0.03,-0.72901 0.17835,-0.87729 0.3781,-0.37808 0.18079,0.45174 0.15859,0.99148 -0.0494,1.19943 -0.20797,0.20794 -0.3559,-0.16167 -0.32873,-0.82135 z m 174.04182,-4.32837 c 0.0127,-1.03255 0.153,-1.3792 0.31174,-0.77033 0.15863,0.60887 0.14821,1.45369 -0.023,1.87737 -0.1714,0.42367 -0.30118,-0.0745 -0.28846,-1.10704 z m -149.5276,-1.25158 c 0.007,-1.37673 0.13508,-1.86626 0.2848,-1.08783 0.14967,0.77842 0.14399,1.90484 -0.0127,2.50315 -0.15661,0.59831 -0.27911,-0.0386 -0.27217,-1.41532 z m -598.24135,-1.56447 c 0,-1.54883 0.12204,-2.18244 0.2712,-1.40803 0.14916,0.77442 0.14916,2.04164 0,2.81605 -0.14916,0.77442 -0.2712,0.14081 -0.2712,-1.40802 z m 28.18396,-3.44184 c 0.004,-2.0651 0.12034,-2.83447 0.25962,-1.70971 0.13927,1.12476 0.1364,2.81439 -0.006,3.75473 -0.14279,0.94034 -0.25674,0.0201 -0.25323,-2.04502 z m 570.05739,-3.12894 c 0.007,-1.376736 0.13508,-1.866259 0.2848,-1.087837 0.14967,0.778427 0.14399,1.904847 -0.0127,2.503157 -0.15661,0.59831 -0.27911,-0.0386 -0.27217,-1.41532 z m -598.25398,-0.62579 c 0.007,-1.376737 0.1351,-1.866261 0.28479,-1.087834 0.14968,0.778424 0.14399,1.904844 -0.0126,2.503154 -0.15663,0.59831 -0.2791,-0.0386 -0.27215,-1.41532 z m 28.05208,-1.303727 c 0.03,-0.729009 0.17832,-0.877293 0.37808,-0.378082 0.18077,0.451741 0.15855,0.991484 -0.0494,1.19943 -0.20795,0.207949 -0.35585,-0.161665 -0.32868,-0.821348 z m 719.70636,-0.260747 c 0,-0.860458 0.14207,-1.212464 0.31563,-0.782233 0.17361,0.430227 0.17361,1.134239 0,1.56447 -0.17356,0.430227 -0.31563,0.07823 -0.31563,-0.782237 z M 198.22883,93.555404 c 0.007,-1.376733 0.1351,-1.866257 0.28478,-1.087835 0.14969,0.778426 0.14401,1.904846 -0.0126,2.503158 -0.15663,0.598307 -0.27911,-0.03863 -0.27216,-1.415323 z m 546.20506,1.19943 c 0.03,-0.729014 0.17835,-0.877293 0.3781,-0.378082 0.18079,0.451736 0.15859,0.991479 -0.0494,1.19943 -0.20797,0.207942 -0.3559,-0.161665 -0.32873,-0.821348 z M 42.299052,92.251681 c 0.03004,-0.729014 0.178312,-0.877293 0.378073,-0.378082 0.180772,0.451736 0.158544,0.991479 -0.04937,1.19943 -0.207947,0.207942 -0.355846,-0.161669 -0.328676,-0.821348 z M 14.836943,89.174885 c 0.01277,-1.032551 0.153,-1.379202 0.311666,-0.77033 0.158666,0.608877 0.148232,1.453691 -0.02319,1.877366 -0.171417,0.423679 -0.301237,-0.07448 -0.28848,-1.107036 z M 194.99148,76.606962 c 0.03,-0.72901 0.17831,-0.877293 0.37808,-0.378083 0.18077,0.451741 0.15854,0.991484 -0.0494,1.19943 -0.20795,0.207947 -0.35585,-0.161664 -0.32868,-0.821347 z M 17.571228,74.911203 c 0.235004,-0.617165 0.584917,-0.964478 0.777591,-0.771804 0.192674,0.192674 3.94e-4,0.69762 -0.42728,1.12212 -0.618038,0.613434 -0.689917,0.541555 -0.350311,-0.350316 z M 360.30809,71.6528 c 0.007,-1.376734 0.1351,-1.866257 0.28479,-1.087831 0.14968,0.778422 0.144,1.904841 -0.0126,2.503153 -0.15663,0.598312 -0.2791,-0.03863 -0.27215,-1.415322 z m 337.86689,-1.56447 c 0,-0.860458 0.14202,-1.212464 0.31563,-0.782238 0.17361,0.430231 0.17361,1.134244 0,1.564475 -0.17361,0.430226 -0.31563,0.07822 -0.31563,-0.782237 z M 19.448594,69.279105 c 0.235004,-0.617165 0.584916,-0.964478 0.777591,-0.771804 0.192674,0.192674 3.94e-4,0.69762 -0.42728,1.12212 -0.618038,0.613435 -0.689917,0.541555 -0.350311,-0.350316 z M 191.81313,67.548239 c 0,-0.364495 0.28161,-0.488678 0.62579,-0.275958 0.34418,0.212719 0.62579,0.510943 0.62579,0.662724 0,0.151775 -0.28161,0.275959 -0.62579,0.275959 -0.34418,0 -0.62579,-0.298225 -0.62579,-0.662725 z M 20.700168,66.15016 c 0.235004,-0.617165 0.584921,-0.964478 0.777595,-0.771804 0.19267,0.192674 3.95e-4,0.697625 -0.427279,1.122121 -0.618038,0.613434 -0.689922,0.541559 -0.350316,-0.350317 z M 188.68419,60.664567 c 0,-0.3645 0.2816,-0.488678 0.62579,-0.275963 0.34418,0.212719 0.62579,0.510944 0.62579,0.662724 0,0.15178 -0.28161,0.275959 -0.62579,0.275959 -0.34419,0 -0.62579,-0.298224 -0.62579,-0.66272 z M 182.4263,50.063091 c -0.73524,-1.032551 -1.196,-1.877366 -1.02391,-1.877366 0.1721,0 0.91446,0.844815 1.6497,1.877366 0.73524,1.032551 1.196,1.877366 1.02391,1.877366 -0.17209,0 -0.91446,-0.844815 -1.6497,-1.877366 z m -152.69243,0.03694 c 0,-0.323869 0.278385,-0.76091 0.618625,-0.971185 0.354733,-0.219238 0.45964,0.03196 0.245939,0.588855 -0.416015,1.084141 -0.864564,1.282494 -0.864564,0.382344 z m 3.128945,-4.236548 c 0,-0.359403 0.492808,-1.039948 1.095128,-1.512322 1.013003,-0.794445 1.026281,-0.764998 0.177083,0.392717 -0.504932,0.688369 -0.99774,1.368914 -1.095134,1.512326 -0.09739,0.143417 -0.177077,-0.03332 -0.177077,-0.392707 z M 176.71438,42.710078 c -0.7784,-0.99254 -0.75627,-1.014675 0.23627,-0.236276 1.04241,0.817513 1.37391,1.331404 0.85886,1.331404 -0.12995,0 -0.62276,-0.492808 -1.09513,-1.095128 z M 39.433595,38.173108 c 1.344345,-1.376733 2.585072,-2.503153 2.757161,-2.503153 0.172094,0 -0.787029,1.12642 -2.131373,2.503153 -1.344345,1.376734 -2.585068,2.503153 -2.757161,2.503153 -0.172094,0 0.787029,-1.126419 2.131373,-2.503153 z M 213.01558,38.93568 c -0.20616,-1.243576 -0.11433,-1.827372 0.23285,-1.480195 0.31529,0.315299 0.46849,1.239362 0.34043,2.053468 -0.19705,1.252635 -0.28519,1.164492 -0.57328,-0.573273 z M 0.67493263,37.363884 C 0.90993567,36.746718 1.2598523,36.399406 1.4525245,36.59208 1.6451967,36.784754 1.4529215,37.2897 1.0252463,37.7142 0.4072071,38.327634 0.33532651,38.255755 0.67493263,37.363884 Z M 168.34606,34.611337 c -2.24103,-2.091541 -2.74559,-2.735773 -1.25158,-1.598005 2.36113,1.798122 5.84978,5.193592 5.27184,5.131034 -0.14604,-0.01582 -1.95516,-1.605674 -4.02026,-3.533029 z m -78.692925,1.895745 c 0.430231,-0.1736 1.134243,-0.1736 1.56447,0 0.430231,0.1736 0.07822,0.315642 -0.782233,0.315642 -0.860462,0 -1.212468,-0.142042 -0.782237,-0.315642 z m 30.702755,-0.013 c 0.45174,-0.180771 0.99148,-0.158543 1.19943,0.04937 0.20794,0.207942 -0.16167,0.35585 -0.82135,0.328675 -0.72901,-0.03004 -0.87729,-0.178312 -0.37808,-0.378073 z m -16.93541,-1.902597 c 1.1186,-0.138813 2.94904,-0.138813 4.06763,0 1.1186,0.138817 0.20338,0.252397 -2.03381,0.252397 -2.2372,0 -3.15241,-0.11358 -2.03382,-0.252397 z m -57.729,-2.05046 c 0.622967,-0.688369 1.273469,-1.251578 1.445563,-1.251578 0.172089,0 -0.196804,0.563209 -0.819771,1.251578 -0.622966,0.688369 -1.273469,1.251579 -1.445562,1.251579 -0.172089,0 0.196804,-0.56321 0.81977,-1.251579 z M 2.1991707,31.915237 c 0,-0.344187 0.2982243,-0.625791 0.6627206,-0.625791 0.3644962,0 0.4886797,0.281604 0.2759624,0.625791 -0.2127177,0.344168 -0.5109415,0.625773 -0.662721,0.625773 -0.1517794,0 -0.275962,-0.281605 -0.275962,-0.625787 z M 210.2739,31.289431 c -0.21272,-0.344182 -0.0885,-0.625787 0.27596,-0.625787 0.3645,0 0.66272,0.281605 0.66272,0.625787 0,0.344187 -0.12418,0.625792 -0.27596,0.625792 -0.15178,0 -0.45,-0.281605 -0.66272,-0.625792 z M 49.592229,29.334413 c 0.424496,-0.427678 0.929447,-0.619949 1.122121,-0.427274 0.192674,0.192674 -0.154639,0.542586 -0.771804,0.77759 -0.891876,0.339602 -0.963751,0.267727 -0.350317,-0.350316 z m 5.486081,-3.677079 c 0.21272,-0.344183 0.510944,-0.625788 0.662724,-0.625788 0.151781,0 0.275959,0.281605 0.275959,0.625788 0,0.344186 -0.298224,0.625791 -0.662719,0.625791 -0.3645,0 -0.488679,-0.281605 -0.275964,-0.625791 z m 518.08325,-7.822355 c 0,-4.474392 0.10076,-6.222708 0.22153,-3.885158 0.12071,2.337556 0.11982,5.998419 0,8.135256 -0.12184,2.136832 -0.22064,0.224289 -0.21951,-4.250098 z m -267.57223,5.517508 c 0.45174,-0.180772 0.99149,-0.158544 1.19943,0.04937 0.20795,0.207952 -0.16166,0.35585 -0.82135,0.328676 -0.72901,-0.03004 -0.87729,-0.178313 -0.37808,-0.378074 z m 11.2642,0 c 0.45174,-0.180772 0.99148,-0.158544 1.19943,0.04937 0.20794,0.207952 -0.16167,0.35585 -0.82135,0.328676 -0.72901,-0.03004 -0.87729,-0.178313 -0.37808,-0.378074 z m 120.77722,0 c 0.45174,-0.180772 0.99149,-0.158544 1.19941,0.04937 0.20796,0.207952 -0.16165,0.35585 -0.82135,0.328676 -0.72898,-0.03004 -0.87729,-0.178313 -0.37806,-0.378074 z m 11.88997,0 c 0.45174,-0.180772 0.99149,-0.158544 1.19945,0.04937 0.20792,0.207952 -0.16169,0.35585 -0.82135,0.328676 -0.72902,-0.03004 -0.87729,-0.178313 -0.3781,-0.378074 z m 184.56854,0.013 c 0.43025,-0.1736 1.13426,-0.1736 1.56446,0 0.43024,0.1736 0.0782,0.315642 -0.78221,0.315642 -0.86049,0 -1.21249,-0.142042 -0.78225,-0.315642 z m 12.55489,-0.013 c 0.45174,-0.180772 0.99148,-0.158544 1.19945,0.04937 0.20796,0.207952 -0.16169,0.35585 -0.82135,0.328676 -0.72903,-0.03004 -0.87729,-0.178313 -0.3781,-0.378074 z m 188.98819,0 c 0.45174,-0.180772 0.99148,-0.158544 1.19945,0.04937 0.20791,0.207952 -0.16174,0.35585 -0.82135,0.328676 -0.72908,-0.03004 -0.87729,-0.178313 -0.3781,-0.378074 z m 12.51574,0 c 0.45179,-0.180772 0.99153,-0.158544 1.19945,0.04937 0.20796,0.207952 -0.16169,0.35585 -0.82135,0.328676 -0.72903,-0.03004 -0.87729,-0.178313 -0.3781,-0.378074 z m -644.81732,-2.85791 -1.19211,-1.408024 1.40802,1.192122 c 1.32319,1.1203 1.69291,1.623927 1.19212,1.623927 -0.11875,0 -0.75236,-0.633611 -1.40803,-1.408025 z M 11.586001,18.460766 c 1.167585,-1.204645 2.263686,-2.190262 2.435778,-2.190262 0.172091,0 -0.642404,0.985617 -1.80999,2.190262 -1.167586,1.204644 -2.2636865,2.190261 -2.4357786,2.190261 -0.1720915,0 0.6424046,-0.985617 1.8099906,-2.190261 z m 55.069401,1.31853 c 0,-0.135269 0.437032,-0.413645 0.971185,-0.618625 0.556902,-0.2137 0.808093,-0.108793 0.588854,0.245944 -0.367499,0.594628 -1.560039,0.879514 -1.560039,0.372681 z m 8.761043,-3.122909 c 0,-0.131951 0.563594,-0.387291 1.252437,-0.567429 0.688843,-0.180138 1.094631,-0.07218 0.901751,0.239908 -0.336832,0.545004 -2.154188,0.82131 -2.154188,0.327521 z m 59.293475,-0.174539 c 0.43023,-0.1736 1.13424,-0.1736 1.56447,0 0.43023,0.1736 0.0782,0.315642 -0.78223,0.315642 -0.86047,0 -1.21247,-0.142042 -0.78224,-0.315642 z m 63.28127,-1.306473 c -0.77839,-0.992535 -0.75626,-1.014669 0.23627,-0.236271 1.04241,0.817513 1.37391,1.3314 0.85886,1.3314 -0.12994,0 -0.62275,-0.492809 -1.09513,-1.095129 z m -70.12583,-0.583931 c 0.45173,-0.180772 0.99148,-0.158539 1.19943,0.0494 0.20794,0.207946 -0.16167,0.35585 -0.82135,0.32868 -0.72902,-0.03004 -0.87729,-0.178313 -0.37808,-0.378083 z m -4.38053,-0.625792 c 0.45174,-0.180771 0.99149,-0.158539 1.19943,0.04941 0.20795,0.207946 -0.16166,0.35585 -0.82134,0.328675 -0.72901,-0.03004 -0.8773,-0.178312 -0.37809,-0.378078 z M 91.852,13.318299 c 0.951238,-0.143844 2.359262,-0.14 3.128945,0.0085 0.769682,0.148537 -0.0086,0.266224 -1.729524,0.261526 -1.72092,-0.0047 -2.350659,-0.126229 -1.399421,-0.270068 z m 25.03154,0 c 0.95124,-0.143844 2.35927,-0.14 3.12895,0.0085 0.76968,0.148537 -0.009,0.266224 -1.72952,0.261526 -1.72092,-0.0047 -2.35066,-0.126229 -1.39943,-0.270068 z M 22.850198,9.3868317 c 0,-0.3441869 0.298224,-0.6257918 0.662719,-0.6257918 0.364496,0 0.488679,0.2816049 0.275964,0.6257918 -0.21272,0.3441822 -0.510944,0.6257873 -0.662725,0.6257873 -0.151775,0 -0.275958,-0.2816051 -0.275958,-0.6257873 z M 186.49393,7.5094658 c -0.21272,-0.3441869 -0.0885,-0.6257918 0.27596,-0.6257918 0.3645,0 0.66272,0.2816049 0.66272,0.6257918 0,0.3441821 -0.12418,0.625787 -0.27596,0.625787 -0.15178,0 -0.45,-0.2816049 -0.66272,-0.625787 z M 45.261254,1.4498823 c 0.451736,-0.1807716 0.991479,-0.1585389 1.19943,0.049403 0.207942,0.2079465 -0.161669,0.3558501 -0.821347,0.3286799 C 44.910323,1.7979272 44.762043,1.649653 45.261254,1.4498823 Z"
       id="path20" />
    <path
       style="fill:#f17a20;stroke-width:1;stroke:#f17a20;stroke-opacity:1;stroke-miterlimit:4;stroke-dasharray:none;stroke-linejoin:bevel"
       d="m 40.437756,276.2727 c -9.346194,-2.62032 -17.921739,-10.39757 -21.060803,-19.10028 -6.048369,-16.76844 3.820858,-35.12969 21.334223,-39.69134 7.184984,-1.87145 15.95732,-1.01532 22.189494,2.16559 6.146215,3.13703 8.166805,5.67067 5.973849,7.49066 -0.735698,0.61058 -1.364484,0.39149 -3.285391,-1.14473 -4.608379,-3.68549 -9.292473,-5.36534 -15.645958,-5.6111 -8.360727,-0.32339 -13.465858,1.52611 -19.494779,7.06261 -6.289796,5.77607 -9.139473,12.57613 -8.716174,20.79902 0.222688,4.32594 0.619667,5.84432 2.548196,9.74644 2.836948,5.74017 7.587609,10.39772 13.426926,13.16375 3.961031,1.8763 4.666226,2.00343 11.113086,2.00343 7.686514,0 11.058338,-1.06023 16.442689,-5.1702 2.188361,-1.67041 2.925378,-1.94599 3.633239,-1.35852 1.707412,1.41703 0.962037,3.02493 -2.453568,5.29276 -5.457981,3.6239 -9.314804,4.8191 -16.370781,5.07317 -4.299356,0.15482 -7.314588,-0.0709 -9.634248,-0.72126 z m 118.013174,0.012 c -11.3035,-3.10725 -20.16574,-12.60227 -22.36943,-23.96664 -2.67235,-13.78126 5.37271,-28.23044 18.73874,-33.65532 5.53684,-2.24723 14.38677,-2.79352 19.82429,-1.2237 14.02419,4.04882 22.85125,15.28014 22.88769,29.12175 0.037,14.06309 -8.69767,25.53851 -22.57251,29.65518 -4.07243,1.20828 -12.23964,1.24229 -16.50878,0.0687 z m 19.72619,-5.25875 c 5.38718,-2.67354 10.49374,-7.95753 13.18853,-13.64678 1.84811,-3.9017 2.01195,-4.75724 2.01195,-10.5055 0,-5.74826 -0.16384,-6.60379 -2.01195,-10.50549 -2.70123,-5.70283 -7.97786,-11.17265 -13.28231,-13.76859 -3.89684,-1.9071 -4.47041,-2.00906 -11.30176,-2.00906 -6.80222,0 -7.42884,0.11003 -11.43555,2.00791 -5.56876,2.6378 -10.51475,7.58379 -13.15255,13.15255 -1.88224,3.97367 -2.00791,4.67076 -2.00791,11.13751 0,6.492 0.11762,7.13733 1.99613,10.9513 2.52846,5.13355 5.54204,8.65759 9.66727,11.30474 5.48237,3.51802 8.76826,4.3791 15.8713,4.15909 5.62466,-0.17422 6.68277,-0.4047 10.45685,-2.27771 z m 618.21329,5.20817 c -13.34891,-3.58975 -22.65276,-15.63784 -22.6728,-29.36043 -0.0249,-17.11915 13.66384,-30.37116 31.34342,-30.34332 7.44582,0.0117 14.3411,2.41964 19.42445,6.78327 l 2.19023,1.88017 -1.34725,1.37497 -1.34724,1.37498 -2.40749,-1.92546 c -1.32411,-1.05901 -4.09712,-2.71347 -6.16222,-3.6766 -3.39982,-1.58562 -4.40862,-1.75113 -10.6725,-1.75113 -6.72228,0 -7.05082,0.0658 -11.62385,2.32665 -5.82856,2.88167 -10.46556,7.59624 -13.24749,13.46917 -1.84071,3.88581 -2.00348,4.74044 -2.00348,10.51975 0,5.99788 0.10823,6.50922 2.32671,10.99801 2.89415,5.85598 7.60212,10.479 13.46917,13.22617 3.54658,1.66065 5.15379,2.02096 9.95515,2.23177 7.04102,0.30916 12.00355,-1.1337 17.04367,-4.95539 l 3.37006,-2.55534 1.32335,1.3511 1.32341,1.35111 -2.19023,1.88016 c -6.87435,5.9011 -18.66693,8.33574 -28.09507,5.80039 z m -526.21027,-0.36818 c -0.58568,-0.58569 -0.76921,-7.50309 -0.76921,-28.99228 0,-29.14732 0.0486,-29.72497 2.4989,-29.72497 0.57297,0 6.84087,7.70953 14.73732,18.12694 7.55717,9.96981 13.88112,18.12621 14.05321,18.12531 0.17209,-4.7e-4 6.49325,-8.15801 14.04702,-18.12694 7.95678,-10.5008 14.15611,-18.12531 14.73732,-18.12531 2.45768,0 2.50509,0.5635 2.50509,29.7735 0,24.25929 -0.13208,28.38123 -0.93071,29.04402 -0.5119,0.42484 -1.35671,0.60896 -1.87737,0.40916 -0.82373,-0.31609 -0.94665,-3.69747 -0.94665,-26.04024 0,-14.12234 -0.21121,-25.66213 -0.46934,-25.64401 -0.25814,0.0182 -6.33048,7.76227 -13.49409,17.20919 -7.1636,9.44693 -13.27474,17.17622 -13.58028,17.17622 -0.30555,0 -6.41262,-7.73799 -13.57127,-17.19554 -7.15866,-9.45755 -13.22382,-17.20169 -13.47814,-17.20919 -0.25432,-0.008 -0.53593,11.59876 -0.62579,25.79169 -0.14253,22.51143 -0.28486,25.82872 -1.11509,25.9885 -0.52344,0.10073 -1.29786,-0.16299 -1.72092,-0.58605 z m 135.33037,-0.006 c -0.17422,-0.4544 -0.24335,-13.77998 -0.15365,-29.61244 l 0.1631,-28.78627 1.56447,-0.14471 c 1.37066,-0.12678 3.26342,2.10199 15.2789,17.99142 7.54293,9.97487 13.7944,18.13614 13.89216,18.13614 0.0978,0 6.41379,-8.18266 14.03566,-18.18368 11.41973,-14.98443 14.09526,-18.14985 15.20699,-17.99142 l 1.34912,0.19225 0.16263,29.27288 c 0.14301,25.73607 0.0475,29.31706 -0.79019,29.63852 -0.52406,0.20111 -1.36855,0.0207 -1.87661,-0.401 -0.7815,-0.64858 -0.94891,-4.66138 -1.08718,-26.0545 l -0.16338,-25.28786 -13.13663,17.22345 c -7.22514,9.4729 -13.42045,17.20919 -13.76735,17.19175 -0.34691,-0.0175 -2.88358,-3.03593 -5.63705,-6.70775 -2.75346,-3.67183 -8.66717,-11.47209 -13.14156,-17.33393 l -8.13525,-10.65789 -0.3129,25.97023 -0.31289,25.97023 -1.41082,0.20034 c -0.77595,0.11018 -1.55336,-0.17142 -1.72757,-0.62579 z m 135.78238,-0.0359 c -0.16666,-0.43469 -0.2296,-13.74413 -0.13991,-29.57659 l 0.1631,-28.78627 h 22.21553 22.21548 l 0.19801,1.72092 0.19802,1.72091 h -20.69261 -20.69256 v 11.88054 11.88053 l 18.30432,0.1659 18.30431,0.1659 v 1.56447 1.56447 l -18.30431,0.1659 -18.30432,0.1659 v 12.19342 12.19343 h 20.69256 20.69261 l -0.19802,1.72092 -0.19801,1.72092 -22.07562,0.16447 c -17.32428,0.12907 -22.14081,-0.006 -22.37858,-0.62579 z m 115.78467,0.0359 c -0.17422,-0.4544 -0.2434,-13.77998 -0.15366,-29.61244 l 0.1631,-28.78627 h 16.58338 c 15.54191,0 16.76225,0.0828 19.43125,1.3177 8.57074,3.96567 12.91032,12.39409 10.35016,20.10212 -1.43459,4.31912 -4.60668,7.77138 -9.42879,10.26163 -2.24843,1.16113 -3.97392,2.41331 -3.83429,2.78263 0.13954,0.36933 3.68936,5.6539 7.88846,11.7435 4.6156,6.69366 7.49379,11.43925 7.27836,12.00073 -0.19609,0.51079 -1.04607,0.92872 -1.88901,0.92872 -1.28651,0 -2.92282,-2.00892 -10.18874,-12.50881 l -8.65607,-12.5088 -12.03326,-0.007 -12.03316,-0.007 -0.16971,12.35933 c -0.16869,12.28956 -0.1776,12.36046 -1.58047,12.55966 -0.77591,0.11019 -1.55333,-0.17142 -1.72755,-0.62578 z m 35.45148,-29.79184 c 4.68201,-2.43239 7.42446,-6.53793 7.42446,-11.11477 0,-4.16904 -0.78741,-6.28749 -3.32373,-8.94235 -4.33263,-4.53506 -5.35819,-4.77265 -21.55137,-4.99308 l -14.54958,-0.19806 v 13.49607 13.49607 h 14.32167 14.32168 l 3.35687,-1.74391 z m 204.83757,29.75597 c -0.16662,-0.43467 -0.22961,-13.74411 -0.13987,-29.57657 l 0.1631,-28.78627 h 22.21548 22.21553 l 0.19797,1.72092 0.19801,1.72091 h -20.69256 -20.69261 v 11.88054 11.88053 l 18.30432,0.1659 18.30432,0.1659 v 1.56447 1.56447 l -18.30432,0.1659 -18.30432,0.1659 v 12.19342 12.19343 h 20.69261 20.69256 l -0.19801,1.72092 -0.19797,1.72092 -22.07567,0.16447 c -17.32423,0.12907 -22.14076,-0.006 -22.37857,-0.62579 z M 37.869125,204.40627 c -2.581378,-0.75062 -6.066834,-1.99231 -7.745462,-2.75932 -1.678624,-0.76702 -3.196075,-1.39458 -3.372111,-1.39458 -0.176041,0 -2.641445,-1.54459 -5.478684,-3.43243 -6.893641,-4.58686 -13.7323987,-11.92527 -16.6709636,-17.88896 -5.01786079,-10.18353 -4.5929941,-3.20663 -4.5929941,-75.42327 0,-47.177751 0.19080562,-64.7526 0.70997428,-65.394917 C 1.1093701,37.629691 1.6220051,36.330816 1.8580721,35.226409 4.1459814,24.522701 17.455066,11.246475 31.383004,5.7743666 42.962518,1.2249222 36.937811,1.564472 106.08009,1.564472 c 58.7778,0 62.54642,0.065989 67.27228,1.1779204 2.75347,0.6478555 5.27383,1.422269 5.60081,1.7209204 0.32697,0.2986466 1.03098,0.5442155 1.56447,0.545708 1.57225,0.00422 10.61805,4.8149274 14.3852,7.6500132 9.10023,6.848678 15.38409,15.74192 17.87189,25.293254 1.42155,5.45769 1.41127,126.402492 -0.0112,131.974302 -3.05982,11.98517 -12.88201,23.53046 -25.33091,29.77471 -6.66832,3.34478 -6.89429,3.43629 -12.20089,4.94134 -4.24445,1.2038 -6.34267,1.24009 -68.52386,1.1851 -63.983566,-0.0566 -64.157175,-0.0602 -68.838753,-1.42147 z m 86.358835,-9.09138 c 1.20464,-0.34432 4.30229,-1.09896 6.88367,-1.67698 9.545,-2.13732 17.75298,-5.50351 26.63447,-10.9231 2.38814,-1.45727 4.48287,-2.82597 4.65497,-3.04154 0.17209,-0.21556 1.43931,-1.21285 2.81604,-2.21618 3.98824,-2.90653 12.95162,-12.20201 16.66538,-17.28284 3.01813,-4.12913 8.05328,-12.15006 8.05328,-12.82877 0,-0.13801 0.68967,-1.73706 1.5326,-3.55343 0.84293,-1.81637 2.25778,-5.69614 3.14411,-8.6217 0.88634,-2.92556 1.87652,-6.16402 2.20041,-7.19657 1.26665,-4.03803 2.64399,-21.23447 2.24789,-28.065431 -0.45122,-7.781588 -1.35889,-15.375054 -2.21805,-18.555824 -1.24024,-4.591675 -4.01844,-13.49437 -4.49156,-14.39314 -0.27178,-0.516276 -1.06356,-2.205905 -1.75953,-3.754732 -3.88484,-8.645449 -9.06626,-15.891443 -17.23927,-24.108392 -6.45369,-6.488384 -8.33741,-8.160187 -11.37263,-10.093198 -0.97291,-0.619606 -1.90974,-1.302141 -2.08183,-1.516743 -0.28496,-0.355348 -4.36646,-2.656642 -10.01262,-5.645456 -6.38028,-3.377433 -16.1006,-6.331576 -26.90891,-8.178007 -6.94798,-1.186951 -28.93058,-0.982163 -35.669953,0.332298 -9.071376,1.769305 -10.180622,2.043832 -15.331823,3.794434 -4.484563,1.524059 -13.901229,5.756196 -14.706032,6.609356 -0.172093,0.182428 -1.368914,0.885839 -2.659603,1.563137 -1.290689,0.677292 -2.346708,1.403805 -2.346708,1.614478 0,0.210664 -0.633611,0.675195 -1.408024,1.032284 -3.825908,1.764161 -16.081559,14.097502 -20.361114,20.490182 -1.622231,2.423248 -3.090313,4.546708 -3.262406,4.718797 -2.404789,2.404788 -8.544296,16.971135 -10.550445,25.031549 -4.138109,16.626338 -3.36268,39.953468 1.855157,55.808318 6.542188,19.87902 14.875403,32.00533 30.597892,44.52539 3.837646,3.05598 12.789302,7.85826 20.33813,10.91078 5.93755,2.40096 17.277605,5.24222 24.092861,6.03648 4.021882,0.46872 28.442968,-0.18073 30.663648,-0.81545 z"
       id="path18" />
    <path
       style="fill:#1a6180;stroke-width:1;stroke:#f17a20;stroke-opacity:1;stroke-miterlimit:4;stroke-dasharray:none;stroke-linejoin:bevel"
       d="m 832.3078,208.5959 c -25.11239,-2.07783 -44.71763,-11.00702 -60.28602,-27.45721 -17.57106,-18.56624 -26.2214,-40.97181 -27.41175,-70.99989 -1.13468,-28.625122 6.06352,-55.119932 20.06191,-73.843058 15.27697,-20.433284 37.13683,-32.4318112 65.09368,-35.72895063 8.09463,-0.95464904 27.5839,-0.40061676 35.39609,1.00622263 19.04963,3.4305014 34.59413,11.219932 46.85206,23.477912 3.14285,3.142804 5.71418,5.972971 5.71418,6.289246 0,0.31628 0.28161,0.575051 0.62582,0.575051 0.39805,0 0.62578,-4.963976 0.62578,-13.640349 V 4.6345238 L 921.35268,2.3172629 923.72572,5.0311386e-7 h 7.51251 7.51256 L 941.06807,2.373091 l 2.31724,2.3730939 v 97.3098951 97.30991 l -2.68332,2.63345 -2.68328,2.63345 h -6.83628 -6.83629 l -2.68327,-2.63345 -2.68332,-2.63345 v -12.06263 -12.06262 l -7.04012,7.06081 c -15.61523,15.66116 -33.80559,23.82444 -58.04192,26.04748 -6.73955,0.61818 -15.84389,0.72229 -21.58971,0.24687 z m 24.69187,-24.37988 c 26.19803,-4.00099 48.45364,-23.32201 57.21587,-49.67146 8.81466,-26.50704 4.99624,-60.182092 -9.25222,-81.59622 -11.41293,-17.152629 -29.05505,-26.900505 -52.94317,-29.252976 -20.25307,-1.994495 -39.09643,2.374422 -52.25334,12.115192 -14.36523,10.63533 -24.72411,27.795224 -28.76439,47.64935 -4.36413,21.445734 -1.52973,47.472784 7.02848,64.539114 14.42409,28.76359 42.73988,41.74993 78.96877,36.217 z m -625.94774,18.04378 -2.31727,-2.3731 V 104.8169 9.7470982 l 2.63345,-2.6832863 2.63345,-2.683291 h 6.93598 6.93598 l 2.63345,2.683291 2.63345,2.6832863 v 7.4350878 7.435087 l 4.53697,-4.354015 C 271.66934,6.8355289 287.3369,0.94256165 311.02587,0.19753742 c 20.87408,-0.6564947 35.52501,2.99474698 48.18573,12.00863358 4.85449,3.456188 11.37854,10.256158 14.55463,15.170187 l 2.50714,3.879032 3.57617,-4.669009 C 389.8474,13.53329 403.99663,5.3142195 423.12089,1.4507177 c 4.40189,-0.88927213 8.60228,-1.12187214 20.2593,-1.12187214 15.39008,0 20.24955,0.56134697 30.19644,3.48819334 21.73957,6.3968011 35.90416,21.9822991 41.24348,45.3808491 l 1.41126,6.18441 0.20313,72.231602 0.20318,72.2316 -2.33737,2.3937 -2.33741,2.39369 h -7.25217 -7.25212 l -2.63348,-2.68329 -2.63343,-2.68329 -0.005,-66.30991 c 0,-56.214822 -0.14672,-67.199243 -0.9499,-72.151518 -1.87169,-11.540709 -5.28047,-18.872391 -11.85721,-25.502628 -8.72656,-8.797501 -21.9098,-12.823658 -39.13083,-11.950495 -17.49213,0.886905 -30.39151,6.270079 -40.48394,16.894787 -2.43629,2.564768 -5.57387,6.597139 -6.9724,8.960804 -3.11314,5.261515 -6.04852,13.909395 -6.94376,20.45692 -0.43798,3.203331 -0.6693,26.445117 -0.6693,67.2486 v 62.35344 l -2.63345,2.68329 -2.63345,2.68329 h -7.25001 -7.25216 l -2.31727,-2.37309 -2.31726,-2.3731 v -63.89419 c 0,-39.533699 -0.24682,-66.299399 -0.64737,-70.202687 -1.73426,-16.89987 -7.6809,-28.297316 -18.38496,-35.236957 -7.68467,-4.982107 -21.60296,-7.918453 -34.10346,-7.194818 -13.60927,0.787828 -24.51799,5.175354 -33.21934,13.36096 -10.08571,9.487912 -15.6694,19.817494 -19.56014,36.18537 -1.31106,5.515462 -1.34326,6.882654 -1.55501,66.020702 l -0.21624,60.3886 -2.60802,2.65961 -2.60801,2.6596 h -7.25217 -7.25216 z m 320.09418,-0.3102 -2.63343,-2.68329 V 104.5067 9.7470982 l 2.63343,-2.6832863 2.63347,-2.683291 h 6.93598 6.93597 l 2.63343,2.683291 2.63348,2.6832863 v 7.9551178 c 0,4.375314 0.10339,7.955118 0.22979,7.955118 0.12639,0 2.06379,-1.771858 4.30531,-3.937466 10.71681,-10.353884 24.41754,-16.9749269 41.93858,-20.2673715 8.46035,-1.58981593 33.34371,-1.57332421 42.07538,0.027879 34.37729,6.3040541 57.04743,28.0825315 60.99445,58.5953275 0.35834,2.770054 0.61502,32.272315 0.62643,71.991847 l 0.0192,67.29843 -2.68332,2.63346 -2.68327,2.63344 h -6.88608 -6.88618 l -2.61194,-2.66134 -2.61193,-2.66134 -0.20059,-67.27054 C 698.3446,65.094438 698.33695,64.744224 696.97135,59.621451 693.55586,46.809531 688.05302,39.235848 676.94333,32.056852 660.68375,21.550009 629.77489,20.297163 609.6958,29.331057 c -16.5227,7.433839 -29.10292,23.107174 -33.98056,42.335457 -2.52313,9.946378 -2.79248,17.095674 -2.79474,74.171676 v 54.16017 l -2.37308,2.31726 -2.37313,2.31727 h -7.19632 -7.19632 z M 95.754574,173.33923 C 86.063325,171.74221 83.32009,170.92045 77.606702,167.9028 61.36865,159.32633 49.027034,143.14459 44.528283,124.53194 c -1.886288,-7.80411 -2.405436,-12.26109 -2.405436,-20.65102 0,-10.314134 0.634554,-14.514919 3.733926,-24.718657 4.946484,-16.284816 19.400484,-32.8075 33.966098,-38.827401 2.222947,-0.918726 4.60493,-1.905348 5.293295,-2.192486 4.775019,-1.991796 15.490144,-3.264998 24.092864,-2.862772 21.75361,1.017091 39.232,11.695455 51.43597,31.424623 13.68836,22.128869 13.44079,54.556183 -0.58391,76.480313 -2.69185,4.20805 -2.30934,3.6997 -6.92858,9.20781 -10.25454,12.22781 -22.41825,18.9436 -38.46677,21.23815 -8.24361,1.17863 -10.17143,1.14894 -18.911166,-0.29127 z"
       id="path16" />
  </g>
</svg>
