<svg id="f4acd8a6-ef68-489d-b76c-95f585ef4c5d" data-name="Layer 1" xmlns="http://www.w3.org/2000/svg" xmlns:xlink="http://www.w3.org/1999/xlink" viewBox="0 0 130.19 48.11"><defs><style>.b81fba0d-570c-43b7-bfb2-8887c2e63a50{fill:url(#e08a3fb1-b9b8-49d1-ad47-fdcb6e63a582);}.b5012d25-eecc-4c51-80fa-630ad06b804f{fill:url(#f1ba0343-ab9a-4518-8acb-e89f96383aac);}.e5041e1f-f103-40e1-bef1-bd4d65c3c1d5{fill:url(#bc1df373-ae44-4250-a7f8-eb21cf5a8abb);}.fe358419-9e36-4773-b740-2f0f2e2839ea{fill:#000083;}</style><linearGradient id="e08a3fb1-b9b8-49d1-ad47-fdcb6e63a582" x1="0.01" y1="31.06" x2="42.02" y2="31.06" gradientUnits="userSpaceOnUse"><stop offset="0" stop-color="#ffb900"/><stop offset="0.34" stop-color="#f38000"/><stop offset="0.57" stop-color="#f83c72"/><stop offset="0.78" stop-color="#fc1cbe"/><stop offset="0.93" stop-color="#fe08ed"/><stop offset="1" stop-color="#f0f"/></linearGradient><linearGradient id="f1ba0343-ab9a-4518-8acb-e89f96383aac" x1="-588.92" y1="-295.1" x2="-581.31" y2="-290.88" gradientTransform="matrix(5.57, 0, 0, -5.57, 3291.95, -1598.84)" gradientUnits="userSpaceOnUse"><stop offset="0" stop-color="#ee0a3f"/><stop offset="1" stop-color="#ee0a3f" stop-opacity="0"/></linearGradient><linearGradient id="bc1df373-ae44-4250-a7f8-eb21cf5a8abb" x1="-786.79" y1="-295.2" x2="-783.05" y2="-292.18" gradientTransform="translate(-4319.18 -1588.68) rotate(180) scale(5.51)" gradientUnits="userSpaceOnUse"><stop offset="0" stop-color="#ed6600"/><stop offset="1" stop-color="#f98200"/></linearGradient></defs><title>_</title><g id="f3428627-29c5-441b-a067-e339a13cc627" data-name="g71"><path id="b77c8c9a-c696-4ad0-9c10-1ea80c77d678" data-name="path69" class="b81fba0d-570c-43b7-bfb2-8887c2e63a50" d="M21,48.11a1.59,1.59,0,0,1-.85-.22C18,46.61,1.49,36.29.87,36A1.49,1.49,0,0,1,0,34.78V20.3A1.56,1.56,0,0,1,.72,19l.12-.07c1.59-1,6.92-4.24,7.77-4.71A1.19,1.19,0,0,1,9.25,14a1.27,1.27,0,0,1,.6.15s7.46,4.87,8.6,5.3A6,6,0,0,0,21,20a5.74,5.74,0,0,0,2.86-.7c1.11-.59,8.24-5.11,8.32-5.11a1,1,0,0,1,.59-.16,1.19,1.19,0,0,1,.64.18c1,.53,7.58,4.58,7.86,4.76A1.5,1.5,0,0,1,42,20.28V34.76A1.44,1.44,0,0,1,41.17,36c-.62.34-17,10.67-19.3,11.93a1.67,1.67,0,0,1-.85.23"/></g><g id="b60e0c0b-4c68-4134-b8ce-bfbf7c79ba6a" data-name="g79"><path id="b3ebc3b1-0a09-4831-8ec2-88d8499d0f66" data-name="path77" class="b5012d25-eecc-4c51-80fa-630ad06b804f" d="M20.94,48.11H21a1.57,1.57,0,0,0,.85-.22C24.1,46.61,40.55,36.29,41.17,36A1.46,1.46,0,0,0,42,34.78V20.3a1.48,1.48,0,0,0-.16-.71L20.94,31.08v17"/></g><g id="eb1a535e-a9c9-43ad-9496-35c334c0ebc8" data-name="g970"><path id="e854a43b-93e5-4e8e-88cb-8da29078ae61" data-name="path968" class="e5041e1f-f103-40e1-bef1-bd4d65c3c1d5" d="M20.94,48.11l-.24,0a2.81,2.81,0,0,1-.8-.36C17.7,46.46,1.47,36.27.85,36A1.54,1.54,0,0,1,0,34.72V20.39a1.71,1.71,0,0,1,.16-.7L20.87,31.06l.07,17.05"/></g><g id="b9b2386d-7389-4b42-8044-b36a82b97245" data-name="g65"><path class="fe358419-9e36-4773-b740-2f0f2e2839ea" d="M130.19,23.28V35.79h-2.76V34.11a5,5,0,0,1-4,1.93,6.23,6.23,0,0,1-6-6.51,6.23,6.23,0,0,1,6-6.5,5,5,0,0,1,4,1.92V23.28Zm-2.54,6.25a3.72,3.72,0,1,0-7.41,0,3.72,3.72,0,1,0,7.41,0Z"/><path class="fe358419-9e36-4773-b740-2f0f2e2839ea" d="M115.59,17.77v18h-2.76V34.11a4.94,4.94,0,0,1-4,1.93,6.24,6.24,0,0,1-6-6.51,6.23,6.23,0,0,1,6-6.5,5,5,0,0,1,4,1.92V17.77ZM113,29.53a3.72,3.72,0,1,0-7.41,0,3.72,3.72,0,1,0,7.41,0Z"/><path class="fe358419-9e36-4773-b740-2f0f2e2839ea" d="M101,23.28V35.79H98.22V34.11a5,5,0,0,1-4,1.93,6.23,6.23,0,0,1-6-6.51,6.22,6.22,0,0,1,6-6.5,5,5,0,0,1,4,1.92V23.28Zm-2.56,6.25a3.71,3.71,0,1,0-7.4,0,3.71,3.71,0,1,0,7.4,0Z"/><polygon class="fe358419-9e36-4773-b740-2f0f2e2839ea" points="87.22 33.29 87.22 35.79 76.97 35.79 76.97 33.62 83.52 25.78 77.06 25.78 77.06 23.28 87.08 23.28 87.08 25.48 80.54 33.29 87.22 33.29"/><path class="fe358419-9e36-4773-b740-2f0f2e2839ea" d="M74.82,23.28V35.79H72.07V34.11a5,5,0,0,1-4,1.93,6.23,6.23,0,0,1-6-6.51,6.22,6.22,0,0,1,6-6.5,5,5,0,0,1,4,1.92V23.28Zm-2.55,6.25a3.71,3.71,0,1,0-7.4,0,3.71,3.71,0,1,0,7.4,0Z"/><polygon class="fe358419-9e36-4773-b740-2f0f2e2839ea" points="61.24 32.96 61.24 35.76 53.22 35.76 53.21 18.77 56.16 18.77 56.16 32.96 61.24 32.96"/></g></svg>