<svg id="b44cce5a-090d-4574-93d9-2f8b5b410483" data-name="Layer 1" xmlns="http://www.w3.org/2000/svg" viewBox="0 0 130.19 48.19"><defs><style>.a798259c-367b-49ef-8613-a1f02f9a5d38{fill:#231f20;}.b4ab717b-48b5-4f79-9cf1-4574c2b3d913{fill:#95bf47;}.e612ac5d-c225-4f87-a729-c7dba07ecf9b{fill:#fff;}.a6b8bd13-3eae-4fa8-9079-72a174c42ea6{fill:#5e8e3e;}</style></defs><title>_</title><path class="a798259c-367b-49ef-8613-a1f02f9a5d38" d="M103.39,23.33,99.1,32.52a23.61,23.61,0,0,1-4.59,7,8,8,0,0,1-3.43,1.9l-1-3a7.17,7.17,0,0,0,2-1A6,6,0,0,0,94,35.32a.73.73,0,0,0,.07-.59L92,23.33h3.68s.79,7.56.86,8.53h0c1-3,3.18-8.53,3.18-8.53Z"/><path class="a798259c-367b-49ef-8613-a1f02f9a5d38" d="M92.88,17.9l-.68,2.74a3.67,3.67,0,0,0-1.12-.18c-1.17,0-1.88,1.07-2.08,2.26l-.13.59h2.44L90.82,26H88.41l-1.85,9.8H83.05L84.91,26H83.28l.51-2.64h1.63l.1-.59a6.69,6.69,0,0,1,2-4A5.21,5.21,0,0,1,91,17.59,4.55,4.55,0,0,1,92.88,17.9Z"/><path class="a798259c-367b-49ef-8613-a1f02f9a5d38" d="M81.41,18a1.67,1.67,0,0,1,1.75,1.76,2,2,0,0,1-2.06,2h0a1.61,1.61,0,0,1-1.65-1.75A2,2,0,0,1,81.41,18Z"/><polygon class="a798259c-367b-49ef-8613-a1f02f9a5d38" points="82.39 23.33 80.01 35.75 76.5 35.75 78.87 23.33 82.39 23.33"/><path class="a798259c-367b-49ef-8613-a1f02f9a5d38" d="M72.8,23.05c2.56,0,3.6,2.11,3.6,4.47,0,4.27-2.69,8.48-6.8,8.48a4.07,4.07,0,0,1-2.06-.46h-.08l-1,5.18H63L65.43,27.9c.28-1.45.56-3.38.71-4.65h3.1L69,25.13h0A4.79,4.79,0,0,1,72.8,23.05Zm0,4.83c0-.94-.34-1.93-1.4-1.93-1.22,0-2.36,1.44-2.77,3.63L68,32.85a2.19,2.19,0,0,0,1.44.51C71.4,33.36,72.75,30.14,72.75,27.88Z"/><path class="a798259c-367b-49ef-8613-a1f02f9a5d38" d="M59.08,23.05c3.28,0,4.75,2.39,4.75,4.9C63.83,32.29,61,36,56.9,36a4.58,4.58,0,0,1-4.83-4.9C52.07,26.86,54.87,23.05,59.08,23.05Zm1.17,4.8c0-1-.41-2.11-1.65-2.11-1.9,0-2.94,3.28-2.94,5.28,0,1.27.5,2.29,1.7,2.29C59.21,33.31,60.25,30,60.25,27.85Z"/><path class="a798259c-367b-49ef-8613-a1f02f9a5d38" d="M51.16,26.23a13.2,13.2,0,0,1-.25,2.28l-1.37,7.24H46l1.32-7a8.14,8.14,0,0,0,.15-1.55c0-.76-.3-1.29-1.09-1.29-1.11,0-2.31,1.42-2.77,3.73l-1.16,6.12H39l3.4-17.9h3.51l-1.35,7,0,0a4.74,4.74,0,0,1,3.71-1.86C50.12,23.05,51.16,24.25,51.16,26.23Z"/><path class="a798259c-367b-49ef-8613-a1f02f9a5d38" d="M39,23.66l-.81,2.49A5.82,5.82,0,0,0,36,25.67c-1,0-1.63.46-1.63,1.17,0,.55.46,1,1.35,1.44,1.37.79,2.51,1.86,2.51,3.35,0,2.8-2.26,4.35-5.41,4.35a6.54,6.54,0,0,1-3.45-.87l.86-2.48a6.89,6.89,0,0,0,2.87.76c1,0,1.53-.54,1.53-1.2s-.39-1.06-1.45-1.67a3.9,3.9,0,0,1-2.31-3.23c0-2.46,2.12-4.21,5.18-4.21A5.12,5.12,0,0,1,39,23.66Z"/><path class="b4ab717b-48b5-4f79-9cf1-4574c2b3d913" d="M25.36,38.76l-8.91,1.93L0,37.61s2.11-16.33,2.19-16.9c.11-.76.13-.79.94-1l2.6-.81c.56-2.36,2.34-7,6-7a2,2,0,0,1,1.51.86h.13c1.6,0,2.51,1.36,3,2.84l.86-.27a.7.7,0,0,1,.63.08l1.71,1.7,2.32.17a.28.28,0,0,1,.25.24ZM15.53,15.83c-.35-1.08-.9-2-1.72-2.12A7,7,0,0,1,14.14,16v.3Zm-2.37.73V16.4a7,7,0,0,0-.37-2.51c-.91.39-1.95,1.43-2.5,3.56Zm-1-3.55a.84.84,0,0,0-.48-.16c-2.67,0-4.17,3.51-4.8,5.66l2.27-.71C9.69,15,11,13.57,12.16,13Z"/><path class="e612ac5d-c225-4f87-a729-c7dba07ecf9b" d="M13.42,22.16l-1.1,3.26a5.06,5.06,0,0,0-2.14-.51c-1.73,0-1.82,1.09-1.82,1.36,0,1.49,3.89,2.06,3.89,5.56,0,2.75-1.74,4.52-4.09,4.52A5.7,5.7,0,0,1,3.89,34.6l.76-2.5a5.39,5.39,0,0,0,2.73,1.27,1.1,1.1,0,0,0,1.15-1.11c0-1.95-3.19-2-3.19-5.24,0-2.69,1.93-5.3,5.84-5.3A4.69,4.69,0,0,1,13.42,22.16Z"/><path class="a6b8bd13-3eae-4fa8-9079-72a174c42ea6" d="M22,17.22l-2.32-.17-1.71-1.7a.41.41,0,0,0-.24-.11L16.45,40.68l8.91-1.93s-3.13-21.15-3.15-21.3A.28.28,0,0,0,22,17.22Z"/></svg>