<svg id="b2f97852-0c14-484a-a8df-c3ddda0490a1" data-name="Layer 1" xmlns="http://www.w3.org/2000/svg" viewBox="0 0 130.19 48.19"><defs><style>.f4ddb3cb-546a-41a3-9b75-18cd30a0a877{fill:#ea501f;}.fdf5b279-26a2-4424-9d69-3bcee40992e7{fill:#fff;}</style></defs><title>_</title><path class="f4ddb3cb-546a-41a3-9b75-18cd30a0a877" d="M123.16,27.49c.76,2.49-.7,2.38-1.12,2.38h-8.15a8.54,8.54,0,0,0,.39,1.62,3.7,3.7,0,0,0,1.37,1.71,4.22,4.22,0,0,0,2.33.59A9.28,9.28,0,0,0,121.4,33a.88.88,0,1,1,.67,1.62,10.77,10.77,0,0,1-4.09.93,5.73,5.73,0,0,1-3.28-.87,4.75,4.75,0,0,1-2.07-2.52c-.84-2.49-.87-5,1.26-7.23a5.29,5.29,0,0,1,3.89-1.6,5.37,5.37,0,0,1,3.9,1.63A6.19,6.19,0,0,1,123.16,27.49ZM114,28.1h7.65a5.15,5.15,0,0,0-1.18-1.9,3.77,3.77,0,0,0-2.66-1.12,3.82,3.82,0,0,0-2.66,1.12A4.63,4.63,0,0,0,114,28.1Z"/><path class="f4ddb3cb-546a-41a3-9b75-18cd30a0a877" d="M109.71,27.49c.76,2.49-.7,2.38-1.12,2.38h-8.15a9.37,9.37,0,0,0,.39,1.62,3.65,3.65,0,0,0,1.38,1.71,4.19,4.19,0,0,0,2.32.59A9.28,9.28,0,0,0,108,33a.88.88,0,1,1,.67,1.62,10.73,10.73,0,0,1-4.09.93,5.73,5.73,0,0,1-3.28-.87,4.75,4.75,0,0,1-2.07-2.52c-.84-2.49-.87-5,1.26-7.23a5.5,5.5,0,0,1,7.79,0A6.08,6.08,0,0,1,109.71,27.49Zm-9.19.61h7.65A5.27,5.27,0,0,0,107,26.2a3.79,3.79,0,0,0-2.66-1.12,3.85,3.85,0,0,0-2.67,1.12A4.63,4.63,0,0,0,100.52,28.1Z"/><path class="f4ddb3cb-546a-41a3-9b75-18cd30a0a877" d="M94.28,25.11a6.06,6.06,0,0,1,1.79,4.34,6.19,6.19,0,0,1-1.79,4.34,6.09,6.09,0,0,1-4.35,1.79,6.21,6.21,0,0,1-4.34-1.79,1.13,1.13,0,0,0-.19-.19v8a.9.9,0,0,1-1.8,0V24.18a.9.9,0,0,1,1.8,0V25.3a1.13,1.13,0,0,1,.19-.19,6.09,6.09,0,0,1,4.34-1.8A6.18,6.18,0,0,1,94.28,25.11Zm0,4.34a4.4,4.4,0,0,0-4.4-4.4,4.4,4.4,0,1,0,4.4,4.4Z"/><path class="f4ddb3cb-546a-41a3-9b75-18cd30a0a877" d="M79.29,25.11a6.06,6.06,0,0,1,1.79,4.34,6.19,6.19,0,0,1-1.79,4.34A6.06,6.06,0,0,1,75,35.58a6.21,6.21,0,0,1-4.35-1.79,6.06,6.06,0,0,1-1.79-4.34,6.14,6.14,0,0,1,10.48-4.34Zm.06,4.34a4.4,4.4,0,1,0-4.4,4.4,4.52,4.52,0,0,0,3.11-1.29A4.47,4.47,0,0,0,79.35,29.45Z"/><path class="f4ddb3cb-546a-41a3-9b75-18cd30a0a877" d="M66.26,28.1v6.56a.9.9,0,1,1-1.79,0V28.1a3.42,3.42,0,0,0-.53-2,2.53,2.53,0,0,0-1.4-1,3.85,3.85,0,0,0-2.11.09,7.69,7.69,0,0,0-3.5,2.57l0,0V25.29a8.13,8.13,0,0,1,3-1.72,6,6,0,0,1,3-.12,4.33,4.33,0,0,1,2.39,1.66A5,5,0,0,1,66.26,28.1Z"/><path class="f4ddb3cb-546a-41a3-9b75-18cd30a0a877" d="M56.9,27.85v6.87a.9.9,0,0,1-1.79,0V27.24h.24a.91.91,0,0,0,.32.7A.89.89,0,0,0,56.9,27.85Z"/><path class="f4ddb3cb-546a-41a3-9b75-18cd30a0a877" d="M56.9,25.29v2.56a.89.89,0,0,1-1.23.09.91.91,0,0,1-.32-.7.83.83,0,0,1,.21-.56A11.12,11.12,0,0,1,56.9,25.29Z"/><path class="f4ddb3cb-546a-41a3-9b75-18cd30a0a877" d="M56.9,16.42v8.87a11.12,11.12,0,0,0-1.34,1.39.83.83,0,0,0-.21.56h-.24V16.42a.9.9,0,0,1,1.79,0Z"/><path class="f4ddb3cb-546a-41a3-9b75-18cd30a0a877" d="M52,28.16a4.78,4.78,0,0,1,.2,3.31A5.42,5.42,0,0,1,51.5,33a1.14,1.14,0,0,0-.14.25,5.5,5.5,0,0,1-4.77,2.36,12.76,12.76,0,0,1-6.38-2.1,8.66,8.66,0,0,0-.82-.57.92.92,0,0,1-.25-1.23.93.93,0,0,1,1.24-.25,7.54,7.54,0,0,0,.81.5,10.89,10.89,0,0,0,5.46,1.85,3.79,3.79,0,0,0,3.28-1.59c0-.09.11-.12.11-.17a6,6,0,0,0,.48-1,3.31,3.31,0,0,0-.12-2.13,4.41,4.41,0,0,0-1.84-1.93,11,11,0,0,0-2.33-1c-2.38-.67-4.15-1.63-5.1-2.89S40,20,41.13,17.91a4.91,4.91,0,0,1,4.15-2.33,11,11,0,0,1,5.66,1.32.86.86,0,0,1,.39,1.17.87.87,0,0,1-1.18.4,9,9,0,0,0-4.73-1.12,3.24,3.24,0,0,0-2.75,1.42c-.73,1.35-.73,2.41-.11,3.23a7.85,7.85,0,0,0,4.15,2.24,10.55,10.55,0,0,1,2.74,1.17A5.86,5.86,0,0,1,52,28.16Z"/><path class="f4ddb3cb-546a-41a3-9b75-18cd30a0a877" d="M34.1,11.27A1.73,1.73,0,0,1,35.86,13L34.24,35.86c-.2,2.86-2,4.52-4.62,4.52H6.28c-2.91,0-4.45-2-4.62-4.52L0,13a1.75,1.75,0,0,1,1.77-1.76H9.92a17.57,17.57,0,0,1,2.13-7.18C13.51,1.55,15.58,0,17.93,0s4.43,1.57,5.89,4.09A18.06,18.06,0,0,1,26,11.27ZM24.07,31a4.75,4.75,0,0,0-.2-3.11,5.9,5.9,0,0,0-2.38-2.58,11.17,11.17,0,0,0-2.6-1.09,7.4,7.4,0,0,1-3.9-2.1,2.65,2.65,0,0,1,.12-3,3,3,0,0,1,2.57-1.34,8.57,8.57,0,0,1,4.43,1,.83.83,0,1,0,.76-1.48,10.45,10.45,0,0,0-5.33-1.2,4.74,4.74,0,0,0-3.92,2.21c-1.06,1.93-1,3.5,0,4.82a8.61,8.61,0,0,0,4.76,2.71,8.25,8.25,0,0,1,2.19.9,4.16,4.16,0,0,1,1.74,1.82,2.89,2.89,0,0,1,.11,2,3.67,3.67,0,0,1-.42,1s0,.06-.09.14a3.54,3.54,0,0,1-3.08,1.51,10.39,10.39,0,0,1-5.13-1.73A6.39,6.39,0,0,1,13,31,.83.83,0,0,0,12,32.33a5.84,5.84,0,0,0,.84.56,11.85,11.85,0,0,0,6,2,5.17,5.17,0,0,0,4.45-2.25l.14-.22A6.12,6.12,0,0,0,24.07,31ZM12,11.27H23.9a15.41,15.41,0,0,0-1.85-6.14C21,3.23,19.5,2.05,17.93,2.05s-3,1.18-4.14,3.08A15.91,15.91,0,0,0,12,11.27Z"/><path class="fdf5b279-26a2-4424-9d69-3bcee40992e7" d="M23.87,27.88a4.75,4.75,0,0,1,.2,3.11,6.12,6.12,0,0,1-.62,1.4l-.14.22a5.17,5.17,0,0,1-4.45,2.25,11.85,11.85,0,0,1-6-2,5.84,5.84,0,0,1-.84-.56A.83.83,0,0,1,13,31a6.39,6.39,0,0,0,.75.48,10.39,10.39,0,0,0,5.13,1.73,3.54,3.54,0,0,0,3.08-1.51c.06-.08.09-.11.09-.14a3.67,3.67,0,0,0,.42-1,2.89,2.89,0,0,0-.11-2,4.16,4.16,0,0,0-1.74-1.82,8.25,8.25,0,0,0-2.19-.9,8.61,8.61,0,0,1-4.76-2.71c-1-1.32-1.06-2.89,0-4.82a4.74,4.74,0,0,1,3.92-2.21,10.45,10.45,0,0,1,5.33,1.2.83.83,0,1,1-.76,1.48,8.57,8.57,0,0,0-4.43-1,3,3,0,0,0-2.57,1.34,2.65,2.65,0,0,0-.12,3,7.4,7.4,0,0,0,3.9,2.1,11.17,11.17,0,0,1,2.6,1.09A5.9,5.9,0,0,1,23.87,27.88Z"/></svg>