<svg id="a9ff3864-40a0-4416-a2a0-665fdb607d58" data-name="Layer 1" xmlns="http://www.w3.org/2000/svg" xmlns:xlink="http://www.w3.org/1999/xlink" viewBox="0 0 800 800"><defs><style>.b20cd3ec-ae54-4467-8322-5e33787b0ae8{fill:url(#b725a720-9d4e-4790-8dc2-6694d082c8d1);}.bb5c74ab-1143-48a8-bf13-b54cd55e4863{fill:url(#bef653ab-df98-49ff-bfeb-68dbe16b54d3);}.b31ef914-a5f6-4f73-8ba5-4010e639dc29{fill:url(#bd62de2c-9041-42ef-b22c-6056b2819d99);}</style><linearGradient id="b725a720-9d4e-4790-8dc2-6694d082c8d1" x1="0.14" y1="475.21" x2="800.05" y2="475.21" gradientUnits="userSpaceOnUse"><stop offset="0" stop-color="#ffb900"/><stop offset="0.34" stop-color="#f38000"/><stop offset="0.57" stop-color="#f83c72"/><stop offset="0.78" stop-color="#fc1cbe"/><stop offset="0.93" stop-color="#fe08ed"/><stop offset="1" stop-color="#f0f"/></linearGradient><linearGradient id="bef653ab-df98-49ff-bfeb-68dbe16b54d3" x1="-1321.53" y1="584.19" x2="-1176.45" y2="664.52" gradientTransform="matrix(5.57, 0, 0, -5.57, 7585.41, 3990.61)" gradientUnits="userSpaceOnUse"><stop offset="0" stop-color="#ee0a3f"/><stop offset="1" stop-color="#ee0a3f" stop-opacity="0"/></linearGradient><linearGradient id="bd62de2c-9041-42ef-b22c-6056b2819d99" x1="-1950.37" y1="606.78" x2="-1879.12" y2="664.17" gradientTransform="translate(-10436.03 3950.31) rotate(180) scale(5.51)" gradientUnits="userSpaceOnUse"><stop offset="0" stop-color="#ed6600"/><stop offset="1" stop-color="#f98200"/></linearGradient></defs><title>Logos</title><g id="f5811ac8-f5cf-4d6f-ac3f-b0d573db8fcd" data-name="g71"><path id="be450625-3827-4e9d-b543-63fd111c41c6" data-name="path69" class="b20cd3ec-ae54-4467-8322-5e33787b0ae8" d="M400.18,800A32.45,32.45,0,0,1,384,795.78c-42.32-24.48-355.76-221-367.6-227A28.37,28.37,0,0,1,.15,546.07V270.41A29.81,29.81,0,0,1,13.6,244.79l2.27-1.3c30.33-18.81,131.83-80.75,147.89-89.67a24.34,24.34,0,0,1,12.16-3.41,25.39,25.39,0,0,1,11.51,2.92s142.05,92.59,163.78,100.86a111.94,111.94,0,0,0,48.64,10.22,108.93,108.93,0,0,0,54.48-13.3c21.25-11.19,157-97.29,158.43-97.29a21.39,21.39,0,0,1,11.35-3.08,23.87,23.87,0,0,1,12.16,3.4c18.48,10.22,144.32,87.24,149.67,90.65A29.17,29.17,0,0,1,800,270.08V545.74a28,28,0,0,1-16.21,22.7c-11.84,6.49-324.31,203-367.44,227A32.47,32.47,0,0,1,400.18,800"/></g><g id="a071382c-f21d-4f2d-a3a5-ecb31da60f79" data-name="g79"><path id="fca94e9f-4ce5-4e5d-b741-2fbb1ddd7284" data-name="path77" class="bb5c74ab-1143-48a8-bf13-b54cd55e4863" d="M398.55,800h1.63a32.42,32.42,0,0,0,16.21-4.22c42.32-24.48,355.6-221,367.44-227A28.05,28.05,0,0,0,800,546.07V270.41A29.36,29.36,0,0,0,797,257L398.55,475.69V800"/></g><g id="b0505b58-41ff-4342-ac8a-413262e5a234" data-name="g970"><path id="aebc83a7-4733-45e7-ba5c-84f1bbcb8afa" data-name="path968" class="b31ef914-a5f6-4f73-8ba5-4010e639dc29" d="M398.55,800l-4.47-.54c-6.77-1.72-10.4-4-15.29-6.72-41.87-24.22-351-218.18-362.73-224.11C6.14,563.7.94,554.69,0,544.88V272.16a29.09,29.09,0,0,1,3-13.31L397.17,475.26,398.55,800"/></g></svg>