<svg id="be3a74d8-3ebe-4704-b84d-e2d53947ef21" data-name="Layer 1" xmlns="http://www.w3.org/2000/svg" viewBox="0 0 800 800"><defs><style>.e4e1f609-2022-49fa-808b-2f66a530c1e4{fill:#95bf47;}.e64d7719-f368-4bfd-a1df-7d284a6fe281{fill:#fff;}.b028affe-1fbe-41af-8b6d-b94aec298fd5{fill:#5e8e3e;}</style></defs><title>Logos</title><path class="e4e1f609-2022-49fa-808b-2f66a530c1e4" d="M739.9,748.68,502.78,800,65.05,718s56.17-434.4,58.33-449.75c2.77-20.23,3.45-20.9,25-27.62,3.45-1.11,30.76-9.56,69.23-21.46,14.86-62.88,62.15-186.62,161.1-186.62,12.95,0,27.93,6.91,40,22.94,1.17-.07,2.4-.13,3.58-.13,42.47,0,66.64,36.19,80.33,75.53,13.93-4.32,22.38-6.91,22.93-7,3.39-1,12.15-2.41,16.65,2.09s45.5,45.19,45.5,45.19,59,4.38,61.77,4.63a7.26,7.26,0,0,1,6.66,6.23C656.67,185.8,739.9,748.68,739.9,748.68ZM478.37,138.39C469,109.72,454.45,84.81,432.5,82c5.49,15.66,8.88,35.32,8.88,59.8v8Zm-62.95,19.48v-4.32c0-29.53-3.94-51.41-10.05-66.64-24.16,10.36-51.72,37.79-66.46,94.63C365.11,173.41,391.32,165.33,415.42,157.87ZM388.67,63.36A22.37,22.37,0,0,0,376,59.1c-71.09,0-111,93.28-127.87,150.56L308.58,191C323,115.88,356.92,78.28,388.67,63.36Z"/><path class="e64d7719-f368-4bfd-a1df-7d284a6fe281" d="M422.25,306.76l-29.24,87s-25.62-13.68-57-13.68c-46.05,0-48.36,28.9-48.36,36.18,0,39.73,103.55,54.95,103.55,148,0,73.21-46.43,120.36-109,120.36-75.14,0-113.56-46.77-113.56-46.77l20.12-66.46s39.49,33.9,72.82,33.9c21.77,0,30.64-17.14,30.64-29.67,0-51.82-85-54.13-85-139.29,0-71.67,51.44-141,155.29-141C402.49,295.3,422.25,306.76,422.25,306.76Z"/><path class="b028affe-1fbe-41af-8b6d-b94aec298fd5" d="M649.44,175.42c-2.79-.23-61.77-4.6-61.77-4.6s-41-40.67-45.47-45.17a11.19,11.19,0,0,0-6.32-2.91L502.79,799.68l237.13-51.31s-83.25-562.86-83.78-566.72A7.42,7.42,0,0,0,649.44,175.42Z"/></svg>