<svg id="a7ff8296-dfc4-49c9-8151-b9a5086018e8" data-name="Layer 1" xmlns="http://www.w3.org/2000/svg" viewBox="0 0 800 800"><defs><style>.a469b1a4-9076-4214-a23d-b08b73b5225d{fill:#ea501f;}.b4345415-a562-4d11-bd70-f36ad9491844{fill:#fff;}</style></defs><title>Logos</title><path class="a469b1a4-9076-4214-a23d-b08b73b5225d" d="M400.09,32.23c44.69,0,84.05,29.85,111.82,77.78,20.73,36.32,35.75,83.68,40.51,136.35h155c18.06,0,34.61,15,33.66,33.67l-31,434.17c-3.8,54.39-38.41,85.76-87.86,85.76H178.34C123,800,93.71,761.55,90.48,714.2L59.1,280C58,262,73.93,246.36,92.57,246.36h155c4.95-52.67,19.21-99.65,40.51-136.35C315.84,61.51,355.2,32.23,400.09,32.23Zm78.16,97.56c-20.73-36.33-48.5-58.58-78.16-58.58-29.86,0-57.63,22.25-78.93,58.58-17.68,30.81-29.86,71.31-34.61,116.57H513.43C508.68,201.1,496.5,160.6,478.25,129.79Zm38.41,491.79c5.33-19.78,4.38-39.94-3.8-59.14-8-18.26-22.82-35.19-45.26-49.07a209.28,209.28,0,0,0-49.45-20.73C382.4,482.37,356.34,469.06,344,452.7c-10.65-14.45-11-33.66,2.29-57.62,8-14.83,25.48-24,48.87-25.48,24-2.28,53.44,4.18,84.25,19.59,8,3.8,17.11,1.14,21.3-6.85,3.8-8,1.14-17.69-6.85-21.3-36.32-18.26-72.07-25.1-101.36-23-34.61,3.23-61.24,18.07-74.55,42.22-20.16,36.7-18.64,66.56,0,91.47,17.12,23,47.92,40.13,90.52,51.73q24.82,6.56,41.65,17.12c16.55,10.07,27.77,21.87,33.09,34.61,5.33,11.79,5.71,25.1,2.09,37.84a72.61,72.61,0,0,1-8,18.64c0,.57-.57,1-1.72,2.66C462.27,653.53,442.11,663,417,663c-27.57,0-61.24-11.22-97.37-33.09A122.8,122.8,0,0,1,305.19,621c-7.42-4.75-17.12-3.23-21.87,4.18s-3.24,17.12,4.18,21.87c5.33,4.38,10.65,7.42,16,10.65C344.55,682.82,384.11,695,417.58,695c36.32-.57,65.61-14.27,84.63-42.6.57-.95,1.71-2.66,2.66-4.19A119.62,119.62,0,0,0,516.66,621.58Z"/><path class="b4345415-a562-4d11-bd70-f36ad9491844" d="M450.1,540.57Q433.27,530,408.45,523.45c-42.6-11.6-73.4-28.72-90.52-51.73-18.64-24.91-20.16-54.77,0-91.47,13.31-24.15,39.94-39,74.55-42.22,29.29-2.09,65,4.75,101.36,23,8,3.61,10.65,13.31,6.85,21.3-4.19,8-13.31,10.65-21.3,6.85-30.81-15.41-60.29-21.87-84.25-19.59-23.39,1.52-40.89,10.65-48.87,25.48C333,419,333.33,438.25,344,452.7c12.36,16.36,38.42,29.67,74.17,39.94a209.28,209.28,0,0,1,49.45,20.73c22.44,13.88,37.27,30.81,45.26,49.07,8.18,19.2,9.13,39.36,3.8,59.14a119.62,119.62,0,0,1-11.79,26.62c-.95,1.53-2.09,3.24-2.66,4.19-19,28.33-48.31,42-84.63,42.6-33.47,0-73-12.17-114.1-37.28-5.33-3.23-10.65-6.27-16-10.65-7.42-4.75-8.94-14.45-4.18-21.87s14.45-8.93,21.87-4.18A122.8,122.8,0,0,0,319.64,630C355.77,651.82,389.44,663,417,663c25.1,0,45.26-9.51,58.57-28.72,1.15-1.71,1.72-2.09,1.72-2.66a72.61,72.61,0,0,0,8-18.64c3.62-12.74,3.24-26-2.09-37.84C477.87,562.44,466.65,550.64,450.1,540.57Z"/></svg>